<svg width="101.443359" height="98.674805" viewBox="0 0 101.443 98.6748" fill="none" xmlns="http://www.w3.org/2000/svg" xmlns:xlink="http://www.w3.org/1999/xlink">
	<desc>
			Created with Pixso.
	</desc>
	<defs/>
	<path id="2К наименований продукции" d="M97.51 64.01Q97.25 63.75 97.13 63.12L95.37 63.54Q95.47 64.1 95.72 64.49Q95.92 64.78 96.18 64.99Q96.26 65.06 96.35 65.12Q96.72 65.37 97.18 65.48Q97.64 65.59 98.14 65.59Q98.96 65.59 99.61 65.26Q99.76 65.18 99.9 65.08Q100.09 64.96 100.24 64.79Q100.7 64.32 100.85 63.54L99.26 63.14Q99.17 63.75 98.9 64.01Q98.86 64.05 98.81 64.09Q98.56 64.26 98.19 64.26Q97.89 64.26 97.66 64.13Q97.58 64.08 97.51 64.01ZM41 74.35Q41.82 74.08 42.3 73.7L41.61 72.34Q41.34 72.55 40.82 72.75Q40.3 72.95 39.65 72.95Q38.59 72.95 38.12 72.44Q37.65 71.92 37.6 70.92L42.4 70.92Q42.48 70.5 42.52 70.12Q42.56 69.73 42.56 69.4Q42.56 68.47 42.28 67.85Q42.01 67.22 41.56 66.85Q41.44 66.75 41.3 66.66Q40.96 66.44 40.54 66.33Q40.42 66.29 40.3 66.27Q39.84 66.17 39.36 66.17Q37.83 66.17 36.87 66.91Q36.69 67.05 36.52 67.22Q35.52 68.28 35.52 70.39Q35.52 72.36 36.41 73.49Q36.54 73.65 36.69 73.78Q37.58 74.61 39.25 74.61Q40.17 74.61 41 74.35ZM53.23 67.26Q52.24 68.36 52.24 70.39Q52.24 71.33 52.47 72.12Q52.7 72.9 53.17 73.46Q53.28 73.58 53.41 73.7Q53.81 74.08 54.35 74.31Q55.05 74.61 56.01 74.61Q57.42 74.61 58.33 73.94Q58.58 73.75 58.79 73.52Q59.77 72.42 59.77 70.39Q59.77 69.44 59.54 68.66Q59.31 67.88 58.85 67.33Q58.73 67.19 58.6 67.07Q58.21 66.7 57.68 66.47Q56.97 66.17 56.01 66.17Q54.62 66.17 53.71 66.83Q53.45 67.02 53.23 67.26ZM10.06 66.4Q9.18 66.56 8.54 66.85L9.04 68.4Q9.49 68.2 10.18 68.07Q10.88 67.94 11.5 67.94Q12.31 67.94 12.56 68.31Q12.56 68.32 12.57 68.33Q12.81 68.72 12.7 69.62Q11.65 69.57 10.79 69.69Q9.93 69.81 9.32 70.13Q8.72 70.43 8.39 70.91Q8.38 70.92 8.37 70.94Q8.04 71.44 8.04 72.18Q8.04 72.71 8.22 73.13Q8.33 73.4 8.5 73.62Q8.6 73.75 8.72 73.87Q8.75 73.9 8.78 73.93Q9.08 74.2 9.49 74.35Q9.93 74.52 10.49 74.52Q11.39 74.52 11.95 74.16Q12.52 73.79 12.84 73.3L12.92 73.3L13.26 74.4L14.96 74.4Q14.77 73.83 14.72 73.18Q14.67 72.53 14.68 71.85Q14.68 71.16 14.73 70.45Q14.78 69.73 14.78 69.03Q14.78 68.39 14.65 67.88Q14.53 67.45 14.29 67.13Q14.24 67.06 14.18 67Q13.85 66.63 13.29 66.43Q12.73 66.23 11.9 66.23Q10.94 66.23 10.06 66.4ZM70.76 66.4Q69.88 66.56 69.24 66.85L69.74 68.4Q70.19 68.2 70.88 68.07Q71.58 67.94 72.21 67.94Q73.01 67.94 73.26 68.31Q73.27 68.32 73.28 68.33Q73.52 68.72 73.4 69.62Q72.35 69.57 71.49 69.69Q70.64 69.81 70.02 70.13Q69.42 70.43 69.1 70.91Q69.09 70.92 69.08 70.94Q68.75 71.44 68.75 72.18Q68.75 72.71 68.92 73.13Q69.03 73.4 69.2 73.62Q69.3 73.75 69.42 73.87Q69.45 73.9 69.49 73.93Q69.79 74.2 70.19 74.35Q70.64 74.52 71.2 74.52Q72.09 74.52 72.66 74.16Q73.23 73.79 73.55 73.3L73.63 73.3L73.97 74.4L75.66 74.4Q75.47 73.83 75.42 73.18Q75.37 72.53 75.38 71.85Q75.39 71.16 75.44 70.45Q75.49 69.73 75.49 69.03Q75.49 68.39 75.35 67.88Q75.24 67.45 74.99 67.13Q74.94 67.06 74.88 67Q74.56 66.63 73.99 66.43Q73.44 66.23 72.6 66.23Q71.65 66.23 70.76 66.4ZM62.56 66.31Q61.77 66.36 61.21 66.4L61.21 74.37Q61.77 74.44 62.52 74.47Q63.28 74.52 63.95 74.52Q65.98 74.52 66.9 73.93Q67.27 73.69 67.49 73.36Q67.82 72.85 67.82 72.13Q67.82 71.4 67.47 70.93Q67.46 70.9 67.44 70.88Q67.05 70.39 66.19 70.2L66.19 70.13Q66.77 69.93 67.08 69.53Q67.14 69.45 67.2 69.37Q67.45 68.94 67.5 68.49Q67.52 68.38 67.52 68.28Q67.52 67.64 67.22 67.21Q67.05 66.95 66.77 66.76Q66.03 66.26 64.27 66.26Q63.36 66.26 62.56 66.31ZM2.08 71.24L4.69 71.24L4.69 74.39L6.76 74.39L6.76 66.39L4.69 66.39L4.69 69.4L2.08 69.4L2.08 66.39L0 66.39L0 74.39L2.08 74.39L2.08 71.24ZM21.42 69.6L21.34 70.74L21.34 74.39L23.42 74.39L23.42 66.39L22.11 66.39L19.23 70.15L18.57 71.28L18.51 71.28L18.61 70.2L18.61 66.39L16.52 66.39L16.52 74.39L17.84 74.39L20.68 70.77L21.37 69.6L21.42 69.6ZM32.22 69.06L32.09 70.72L32.09 74.39L34.09 74.39L34.09 66.39L31.92 66.39L30.22 69.37L29.76 70.4L29.69 70.4L29.24 69.4L27.4 66.39L25.24 66.39L25.24 74.39L27.1 74.39L27.1 70.71L26.89 69.06L26.99 69.06L27.6 70.44L29.24 72.92L30 72.92L31.5 70.44L32.14 69.06L32.22 69.06ZM46.11 71.24L48.72 71.24L48.72 74.39L50.8 74.39L50.8 66.39L48.72 66.39L48.72 69.4L46.11 69.4L46.11 66.39L44.03 66.39L44.03 74.39L46.11 74.39L46.11 71.24ZM79.31 71.24L81.92 71.24L81.92 74.39L84 74.39L84 66.39L81.92 66.39L81.92 69.4L79.31 69.4L79.31 66.39L77.23 66.39L77.23 74.39L79.31 74.39L79.31 71.24ZM90.72 69.6L90.64 70.74L90.64 74.39L92.72 74.39L92.72 66.39L91.4 66.39L88.53 70.15L87.87 71.28L87.8 71.28L87.9 70.2L87.9 66.39L85.82 66.39L85.82 74.39L87.13 74.39L89.98 70.77L90.67 69.6L90.72 69.6ZM99.44 69.6L99.36 70.74L99.36 74.39L101.44 74.39L101.44 66.39L100.13 66.39L97.25 70.15L96.59 71.28L96.52 71.28L96.62 70.2L96.62 66.39L94.54 66.39L94.54 74.39L95.85 74.39L98.7 70.77L99.39 69.6L99.44 69.6ZM38.26 68.16Q38.65 67.83 39.32 67.83Q39.84 67.83 40.16 68.08Q40.27 68.17 40.36 68.29Q40.68 68.76 40.62 69.62L37.65 69.62Q37.72 68.8 38.11 68.32Q38.18 68.23 38.26 68.16ZM54.47 71.37Q54.38 70.92 54.38 70.39Q54.38 69.08 54.81 68.5Q54.99 68.26 55.24 68.12Q55.57 67.92 56.01 67.92Q56.56 67.92 56.91 68.19Q57.12 68.35 57.26 68.6Q57.63 69.28 57.63 70.39Q57.63 71.67 57.23 72.26Q57.09 72.47 56.9 72.6Q56.55 72.85 56.01 72.85Q55.58 72.85 55.27 72.67Q55.19 72.62 55.11 72.56Q54.91 72.4 54.76 72.15Q54.57 71.81 54.47 71.37ZM65.19 69.41Q64.86 69.65 64.35 69.65L63.25 69.65L63.25 67.97Q63.42 67.96 63.64 67.94Q63.85 67.92 64.22 67.92Q64.96 67.92 65.23 68.14Q65.32 68.21 65.38 68.29Q65.52 68.48 65.52 68.77Q65.52 68.93 65.46 69.07Q65.38 69.26 65.19 69.41L65.19 69.41ZM12.17 72.53Q11.81 72.8 11.18 72.8Q10.75 72.8 10.49 72.59Q10.47 72.58 10.45 72.56Q10.41 72.51 10.37 72.47Q10.19 72.23 10.19 71.86Q10.19 71.65 10.28 71.49Q10.32 71.41 10.4 71.33Q10.61 71.12 10.96 71.01Q11.31 70.9 11.76 70.87Q12.22 70.84 12.72 70.88L12.72 71.92Q12.54 72.24 12.17 72.53ZM72.88 72.53Q72.51 72.8 71.88 72.8Q71.46 72.8 71.2 72.59Q71.17 72.58 71.15 72.56Q71.11 72.51 71.07 72.47Q70.89 72.23 70.89 71.86Q70.89 71.65 70.98 71.49Q71.03 71.41 71.1 71.33Q71.31 71.12 71.66 71.01Q72.01 70.9 72.47 70.87Q72.92 70.84 73.42 70.88L73.42 71.92Q73.24 72.24 72.88 72.53ZM63.66 72.84Q63.47 72.82 63.25 72.79L63.25 70.93L64.32 70.93Q65.12 70.93 65.43 71.2Q65.58 71.32 65.65 71.47Q65.74 71.65 65.74 71.88Q65.74 72.19 65.6 72.4Q65.51 72.52 65.37 72.62Q65 72.85 64.14 72.85Q63.85 72.85 63.66 72.84ZM10.03 87.39L8.51 87.39L8.51 98.59L10.59 98.59L10.59 95.31Q10.91 95.47 11.23 95.54Q11.55 95.61 12.05 95.61Q12.93 95.61 13.6 95.31Q13.95 95.16 14.24 94.93Q14.52 94.71 14.76 94.43Q15.23 93.85 15.47 93.03Q15.71 92.21 15.71 91.18Q15.71 89.07 14.96 88.12Q14.78 87.9 14.57 87.73Q13.86 87.17 12.7 87.17Q11.89 87.17 11.32 87.46Q10.75 87.74 10.33 88.35L10.27 88.35L10.03 87.39ZM17.76 88.26Q16.76 89.36 16.76 91.39Q16.76 92.33 16.99 93.12Q17.23 93.9 17.7 94.46Q17.81 94.58 17.94 94.7Q18.34 95.08 18.88 95.31Q19.58 95.61 20.54 95.61Q21.95 95.61 22.86 94.94Q23.1 94.75 23.32 94.52Q24.3 93.42 24.3 91.39Q24.3 90.44 24.07 89.66Q23.84 88.88 23.37 88.33Q23.26 88.19 23.13 88.07Q22.73 87.7 22.21 87.47Q21.5 87.17 20.54 87.17Q19.15 87.17 18.24 87.83Q17.98 88.02 17.76 88.26ZM2.08 89.23L4.6 89.23L4.6 95.39L6.69 95.39L6.69 87.39L0 87.39L0 95.39L2.08 95.39L2.08 89.23ZM32.17 97.21L33.69 97.21L33.69 93.55L32.52 93.55L32.52 87.39L26.96 87.39Q26.96 88.88 26.81 89.97Q26.67 91.05 26.47 91.79Q26.27 92.53 26.07 92.95Q25.87 93.37 25.74 93.55L24.8 93.55L24.8 97.21L26.32 97.21L26.56 95.39L31.93 95.39L32.17 97.21ZM38.03 93.13L37.74 91.88L36.27 87.39L33.77 87.39L37.12 95.39Q36.94 96.21 36.6 96.52Q36.28 96.8 35.95 96.83Q35.92 96.83 35.89 96.83Q35.86 96.83 35.84 96.83Q35.62 96.82 35.41 96.73L35.02 98.4Q35.52 98.67 36.35 98.67Q36.78 98.67 37.12 98.5Q37.22 98.44 37.32 98.37Q37.73 98.08 38.06 97.53Q38.4 96.99 38.67 96.24Q38.96 95.5 39.26 94.6L41.69 87.39L39.55 87.39L38.33 91.87L38.12 93.13L38.03 93.13ZM44.56 92.08L45.12 92.08L47.07 95.39L49.45 95.39L47.29 91.66L46.4 91.04L47.21 90.43L49.15 87.39L46.92 87.39L45.05 90.57L44.56 90.79L44.56 87.39L42.48 87.39L42.48 95.39L44.56 95.39L44.56 92.08ZM56.59 97.21L58.11 97.21L58.11 93.55L56.94 93.55L56.94 87.39L54.86 87.39L54.86 93.55L52.38 93.55L52.38 87.39L50.3 87.39L50.3 95.39L56.35 95.39L56.59 97.21ZM64.14 90.6L64.06 91.74L64.06 95.39L66.14 95.39L66.14 87.39L64.83 87.39L61.95 91.15L61.29 92.28L61.23 92.28L61.33 91.2L61.33 87.39L59.24 87.39L59.24 95.39L60.56 95.39L63.4 91.77L64.09 90.6L64.14 90.6ZM72.86 90.6L72.78 91.74L72.78 95.39L74.86 95.39L74.86 87.39L73.55 87.39L70.67 91.15L70.01 92.28L69.95 92.28L70.05 91.2L70.05 87.39L67.96 87.39L67.96 95.39L69.28 95.39L72.12 91.77L72.81 90.6L72.86 90.6ZM11.13 89.22Q11.47 88.92 12.08 88.92Q12.59 88.92 12.92 89.17Q13.09 89.3 13.21 89.5Q13.57 90.08 13.57 91.13Q13.57 92.59 13.12 93.22Q12.97 93.43 12.77 93.57Q12.37 93.85 11.77 93.85Q11.34 93.85 11.07 93.75Q10.98 93.72 10.9 93.67Q10.74 93.59 10.59 93.47L10.59 90.14Q10.78 89.53 11.12 89.23Q11.13 89.23 11.13 89.22ZM19 92.37Q18.91 91.92 18.91 91.39Q18.91 90.08 19.34 89.5Q19.52 89.26 19.76 89.12Q20.1 88.92 20.54 88.92Q21.09 88.92 21.44 89.19Q21.65 89.35 21.79 89.6Q22.16 90.28 22.16 91.39Q22.16 92.67 21.76 93.26Q21.62 93.47 21.43 93.6Q21.07 93.85 20.54 93.85Q20.11 93.85 19.8 93.67Q19.71 93.62 19.64 93.56Q19.43 93.4 19.29 93.15Q19.1 92.81 19 92.37ZM30.45 89.15L30.45 93.65L27.82 93.65Q28.01 93.29 28.17 92.76Q28.33 92.24 28.45 91.63Q28.57 91.02 28.65 90.37Q28.73 89.72 28.77 89.15L30.45 89.15Z" fill="#6F7682" fill-opacity="1.000000" fill-rule="evenodd"/>
	<path id="2К наименований продукции" d="M31.07 20.96Q32.54 16.79 32.54 12.81Q32.54 10.05 31.64 7.69Q31 5.99 29.94 4.63Q29.51 4.08 29 3.58Q28.91 3.49 28.82 3.4Q27.15 1.81 24.81 0.93Q22.34 0 19.12 0Q14.98 0 11.37 1.28Q7.78 2.54 5.16 4.79L7.64 9.06Q9.58 7.56 12.27 6.4Q14.17 5.58 16.13 5.34Q16.98 5.23 17.83 5.23Q21.51 5.23 23.59 7.06Q23.92 7.35 24.21 7.69Q24.72 8.28 25.11 8.94Q26.31 11.01 26.31 13.78Q26.31 16.93 25.1 20.47Q23.91 23.98 21.92 27.59Q19.94 31.2 17.49 34.69Q15.05 38.17 12.54 41.29Q10.03 44.38 7.71 46.94Q5.38 49.49 3.74 51.21L3.74 53.39L33.58 53.39L33.58 47.84L17.23 47.84L12.43 48.66L12.43 48.37L16.11 45.13Q19.04 41.54 21.95 37.53Q24.88 33.52 27.25 29.33Q29.61 25.12 31.07 20.96ZM52.56 29.09L56.09 29.09L75.21 53.39L83.08 53.39L63.89 28.94L60.06 25.94L63.21 23.47L80.76 0.89L73.56 0.89L55.93 24.29L52.56 25.34L52.56 0.89L46.33 0.89L46.33 53.39L52.56 53.39L52.56 29.09Z" fill="#6CDB7E" fill-opacity="1.000000" fill-rule="evenodd"/>
</svg>
