<svg width="115.312500" height="98.592773" viewBox="0 0 115.312 98.5928" fill="none" xmlns="http://www.w3.org/2000/svg" xmlns:xlink="http://www.w3.org/1999/xlink">
	<desc>
			Created with Pixso.
	</desc>
	<defs/>
	<path id="30 брендов работают с нами" d="M47.94 6.82Q43.57 13.64 43.57 27.13Q43.57 40.04 47.69 47.16Q49.43 50.16 52.01 51.9Q55.58 54.29 60.74 54.29Q65.4 54.29 68.83 52.23Q71.63 50.54 73.59 47.47Q77.99 40.64 77.99 27.13Q77.99 13.42 73.91 6.71Q72.47 4.34 70.4 2.81Q66.62 0 60.74 0Q56.23 0 52.87 1.97Q49.97 3.66 47.94 6.82ZM21.73 48.3Q19.57 49.03 17.01 49.03Q14.1 49.03 11.74 48.48Q9.37 47.91 7.63 47.09L6.06 52.42Q8.09 53.24 10.78 53.75Q13.49 54.29 16.86 54.29Q20.54 54.29 23.84 53.17Q27.13 52.04 29.56 49.92L29.57 49.91Q30.04 49.5 30.47 49.05Q32.29 47.16 33.43 44.62Q34.86 41.47 34.86 37.42Q34.86 34.03 33.82 31.38Q32.87 28.96 31.24 27.17Q31.07 26.98 30.89 26.8Q30.3 26.2 29.63 25.68Q28.21 24.58 26.46 23.89Q23.91 22.86 20.91 22.79L18.36 23.32L18.36 23.16L21 21L32.92 3.07L32.92 0.89L6.15 0.89L6.15 6.44L21 6.44L25.87 5.69L22.41 8.99L11.63 25.63L11.63 27.81L17.17 27.81Q22.65 27.81 25.76 30.37Q26.27 30.79 26.7 31.28Q28.87 33.78 28.87 38.17Q28.87 40.34 28.13 42.21Q28.05 42.41 27.96 42.6Q27.37 43.92 26.49 45.01Q26.03 45.58 25.49 46.08Q25.32 46.24 25.14 46.39Q23.68 47.63 21.73 48.3ZM50.43 36.03Q49.79 32.02 49.79 27.13Q49.79 15.89 52.45 10.56Q53.92 7.61 56.31 6.3Q58.23 5.23 60.74 5.23Q63.45 5.23 65.39 6.45Q65.65 6.62 65.9 6.81Q68.01 8.38 69.33 11.31Q70.65 14.24 71.2 18.29Q71.76 22.33 71.76 27.13Q71.76 38.47 69.09 43.76Q67.68 46.57 65.4 47.88Q63.4 49.03 60.74 49.03Q58.74 49.03 57.13 48.24Q56.44 47.9 55.82 47.42Q53.76 45.81 52.41 42.93Q51.07 40.04 50.43 36.03Z" fill="#6CDB7E" fill-opacity="1.000000" fill-rule="evenodd"/>
	<path id="30 брендов работают с нами" d="M2.83 66.88Q2.2 67.19 1.74 67.89L1.69 67.89Q1.79 67.04 1.99 66.53Q2.19 66.01 2.52 65.72Q2.58 65.67 2.65 65.62Q2.94 65.41 3.32 65.32Q3.79 65.21 4.4 65.17Q5.41 65.09 6 64.99Q6.59 64.88 6.91 64.61L6.83 62.76Q6.54 63.03 5.94 63.15Q5.35 63.27 4.52 63.35Q3.88 63.41 3.31 63.51Q2.73 63.6 2.23 63.84Q2.13 63.88 2.03 63.94Q1.64 64.15 1.32 64.47Q0.91 64.87 0.61 65.54Q0.32 66.21 0.16 67.19Q0 68.17 0 69.54Q0 72.15 0.97 73.38Q1.25 73.73 1.6 73.99Q2.48 74.61 3.8 74.61Q5.14 74.61 6.03 73.98Q6.31 73.77 6.55 73.49Q7.53 72.37 7.53 70.21Q7.53 68.34 6.67 67.46Q6.47 67.24 6.23 67.08Q5.47 66.56 4.36 66.56Q3.47 66.56 2.83 66.88ZM10.49 66.39L8.97 66.39L8.97 77.59L11.05 77.59L11.05 74.31Q11.37 74.47 11.69 74.54Q12.01 74.61 12.51 74.61Q13.39 74.61 14.07 74.31Q14.41 74.16 14.7 73.93Q14.99 73.71 15.22 73.43Q15.69 72.85 15.93 72.03Q16.17 71.21 16.17 70.18Q16.17 68.07 15.42 67.12Q15.24 66.9 15.03 66.73Q14.32 66.17 13.17 66.17Q12.35 66.17 11.78 66.46Q11.21 66.74 10.79 67.35L10.73 67.35L10.49 66.39ZM22.71 74.35Q23.53 74.08 24.01 73.7L23.32 72.34Q23.05 72.55 22.53 72.75Q22.01 72.95 21.36 72.95Q20.3 72.95 19.83 72.44Q19.36 71.92 19.31 70.92L24.11 70.92Q24.19 70.5 24.23 70.12Q24.27 69.73 24.27 69.4Q24.27 68.47 23.99 67.85Q23.72 67.22 23.27 66.85Q23.15 66.75 23.02 66.66Q22.67 66.44 22.25 66.33Q22.13 66.29 22.02 66.27Q21.55 66.17 21.07 66.17Q19.54 66.17 18.58 66.91Q18.4 67.05 18.23 67.22Q17.23 68.28 17.23 70.39Q17.23 72.36 18.12 73.49Q18.25 73.65 18.4 73.78Q19.29 74.61 20.96 74.61Q21.88 74.61 22.71 74.35ZM44.03 67.26Q43.04 68.36 43.04 70.39Q43.04 71.33 43.27 72.12Q43.5 72.9 43.97 73.46Q44.08 73.58 44.21 73.7Q44.61 74.08 45.15 74.31Q45.85 74.61 46.81 74.61Q48.22 74.61 49.13 73.94Q49.37 73.75 49.59 73.52Q50.57 72.42 50.57 70.39Q50.57 69.44 50.34 68.66Q50.11 67.88 49.64 67.33Q49.53 67.19 49.4 67.07Q49.01 66.7 48.48 66.47Q47.77 66.17 46.81 66.17Q45.42 66.17 44.51 66.83Q44.25 67.02 44.03 67.26ZM53.36 66.31Q52.57 66.36 52.01 66.4L52.01 74.37Q52.57 74.44 53.32 74.47Q54.08 74.52 54.75 74.52Q56.78 74.52 57.7 73.93Q58.07 73.69 58.29 73.36Q58.62 72.85 58.62 72.13Q58.62 71.4 58.27 70.93Q58.26 70.9 58.24 70.88Q57.85 70.39 56.99 70.2L56.99 70.13Q57.56 69.93 57.88 69.53Q57.94 69.45 57.99 69.37Q58.25 68.94 58.3 68.49Q58.31 68.38 58.31 68.28Q58.31 67.64 58.02 67.21Q57.85 66.95 57.57 66.76Q56.83 66.26 55.07 66.26Q54.15 66.26 53.36 66.31ZM27.82 71.24L30.43 71.24L30.43 74.39L32.51 74.39L32.51 66.39L30.43 66.39L30.43 69.4L27.82 69.4L27.82 66.39L25.74 66.39L25.74 74.39L27.82 74.39L27.82 71.24ZM40.76 76.21L42.28 76.21L42.28 72.55L41.12 72.55L41.12 66.39L35.55 66.39Q35.55 67.88 35.4 68.97Q35.26 70.05 35.06 70.79Q34.86 71.53 34.66 71.95Q34.46 72.37 34.33 72.55L33.39 72.55L33.39 76.21L34.91 76.21L35.15 74.39L40.53 74.39L40.76 76.21ZM19.97 68.16Q20.36 67.83 21.04 67.83Q21.56 67.83 21.87 68.08Q21.98 68.17 22.07 68.29Q22.4 68.76 22.33 69.62L19.36 69.62Q19.43 68.8 19.82 68.32Q19.89 68.23 19.97 68.16ZM11.59 68.22Q11.94 67.92 12.54 67.92Q13.05 67.92 13.38 68.17Q13.55 68.3 13.68 68.5Q14.03 69.08 14.03 70.13Q14.03 71.59 13.58 72.22Q13.43 72.43 13.23 72.57Q12.83 72.85 12.24 72.85Q11.8 72.85 11.54 72.75Q11.45 72.72 11.36 72.67Q11.2 72.59 11.05 72.47L11.05 69.14Q11.24 68.53 11.59 68.23Q11.59 68.23 11.59 68.22ZM45.27 71.37Q45.18 70.92 45.18 70.39Q45.18 69.08 45.61 68.5Q45.79 68.26 46.03 68.12Q46.37 67.92 46.81 67.92Q47.36 67.92 47.71 68.19Q47.92 68.35 48.06 68.6Q48.43 69.28 48.43 70.39Q48.43 71.67 48.03 72.26Q47.89 72.47 47.7 72.6Q47.35 72.85 46.81 72.85Q46.38 72.85 46.07 72.67Q45.98 72.62 45.91 72.56Q45.7 72.4 45.56 72.15Q45.37 71.81 45.27 71.37ZM55.98 69.41Q55.66 69.65 55.15 69.65L54.05 69.65L54.05 67.97Q54.22 67.96 54.44 67.94Q54.65 67.92 55.02 67.92Q55.76 67.92 56.03 68.14Q56.12 68.21 56.18 68.29Q56.31 68.48 56.31 68.77Q56.31 68.93 56.26 69.07Q56.18 69.26 55.99 69.41L55.98 69.41ZM39.04 68.15L39.04 72.65L36.41 72.65Q36.6 72.29 36.76 71.76Q36.92 71.24 37.04 70.63Q37.16 70.02 37.24 69.37Q37.32 68.72 37.36 68.15L39.04 68.15ZM2.54 72.18Q2.14 71.51 2.14 70.49Q2.14 69.48 2.56 68.9Q2.67 68.75 2.82 68.64Q3.22 68.33 3.87 68.33Q4.45 68.33 4.8 68.61Q4.94 68.73 5.03 68.88Q5.39 69.44 5.39 70.49Q5.39 71.63 5.01 72.24Q4.89 72.43 4.73 72.56Q4.37 72.85 3.77 72.85Q3.3 72.85 2.97 72.64Q2.71 72.48 2.54 72.18ZM54.46 72.84Q54.27 72.82 54.05 72.79L54.05 70.93L55.12 70.93Q55.92 70.93 56.23 71.2Q56.37 71.32 56.45 71.47Q56.54 71.65 56.54 71.88Q56.54 72.19 56.4 72.4Q56.31 72.52 56.17 72.62Q55.8 72.85 54.94 72.85Q54.65 72.85 54.46 72.84ZM19.41 87.88Q18.78 88.19 18.32 88.89L18.27 88.89Q18.36 88.04 18.56 87.53Q18.76 87.01 19.1 86.72Q19.16 86.67 19.22 86.62Q19.52 86.41 19.9 86.32Q20.36 86.21 20.97 86.17Q21.98 86.09 22.57 85.99Q23.16 85.88 23.49 85.61L23.4 83.76Q23.11 84.03 22.52 84.15Q21.93 84.27 21.1 84.35Q20.46 84.41 19.88 84.51Q19.31 84.6 18.81 84.84Q18.71 84.88 18.61 84.94Q18.22 85.15 17.89 85.47Q17.49 85.87 17.19 86.54Q16.89 87.21 16.73 88.19Q16.57 89.17 16.57 90.54Q16.57 93.15 17.55 94.38Q17.83 94.73 18.18 94.99Q19.06 95.61 20.38 95.61Q21.72 95.61 22.6 94.98Q22.89 94.77 23.13 94.49Q24.11 93.37 24.11 91.21Q24.11 89.34 23.25 88.46Q23.04 88.24 22.8 88.08Q22.04 87.56 20.94 87.56Q20.04 87.56 19.41 87.88ZM1.9 87.39L0.38 87.39L0.38 98.59L2.46 98.59L2.46 95.31Q2.78 95.47 3.1 95.54Q3.42 95.61 3.92 95.61Q4.8 95.61 5.48 95.31Q5.82 95.16 6.11 94.93Q6.39 94.71 6.63 94.43Q7.1 93.85 7.34 93.03Q7.58 92.21 7.58 91.18Q7.58 89.07 6.83 88.12Q6.65 87.9 6.44 87.73Q5.73 87.17 4.57 87.17Q3.76 87.17 3.19 87.46Q2.62 87.74 2.2 88.35L2.14 88.35L1.9 87.39ZM26.16 88.26Q25.16 89.36 25.16 91.39Q25.16 92.33 25.39 93.12Q25.63 93.9 26.1 94.46Q26.21 94.58 26.33 94.7Q26.74 95.08 27.28 95.31Q27.98 95.61 28.94 95.61Q30.35 95.61 31.25 94.94Q31.5 94.75 31.71 94.52Q32.7 93.42 32.7 91.39Q32.7 90.44 32.47 89.66Q32.24 88.88 31.77 88.33Q31.66 88.19 31.53 88.07Q31.13 87.7 30.6 87.47Q29.9 87.17 28.94 87.17Q27.55 87.17 26.64 87.83Q26.38 88.02 26.16 88.26ZM53.88 95.37Q54.51 95.61 55.4 95.61Q56.85 95.61 57.7 94.9Q57.89 94.73 58.06 94.52Q58.92 93.42 58.92 91.39Q58.92 90.44 58.72 89.66Q58.52 88.88 58.09 88.33Q57.93 88.12 57.74 87.95Q57.41 87.66 57 87.47Q56.35 87.17 55.43 87.17Q53.76 87.17 52.93 88.01L52.93 88.01Q52.11 88.85 51.95 90.4L50.72 90.4L50.72 87.39L48.63 87.39L48.63 95.39L50.72 95.39L50.72 92.16L51.93 92.16Q52 92.96 52.21 93.6Q52.43 94.24 52.83 94.69Q53.24 95.13 53.88 95.37ZM74.96 95.43Q75.65 95.24 76.12 94.89L75.65 93.31Q75.36 93.5 74.99 93.64Q74.62 93.77 74.09 93.77Q73.61 93.77 73.25 93.59Q73.03 93.47 72.85 93.31Q72.75 93.2 72.66 93.08Q72.44 92.76 72.33 92.33Q72.22 91.9 72.22 91.39Q72.22 90.14 72.66 89.58Q72.79 89.42 72.94 89.31Q73.35 89.01 73.98 89.01Q74.44 89.01 74.8 89.1Q75.16 89.2 75.53 89.37L76.03 87.68Q75.59 87.45 75.06 87.31Q74.52 87.17 73.65 87.17Q72.31 87.17 71.46 87.81Q71.2 88.01 70.99 88.26Q70.08 89.36 70.08 91.39Q70.08 92.33 70.26 93.12Q70.44 93.9 70.86 94.46Q70.97 94.6 71.1 94.73Q71.45 95.09 71.94 95.31Q72.6 95.61 73.56 95.61Q74.14 95.61 74.68 95.49Q74.82 95.46 74.96 95.43ZM10.49 87.4Q9.61 87.56 8.97 87.85L9.47 89.4Q9.92 89.2 10.61 89.07Q11.31 88.94 11.93 88.94Q12.74 88.94 12.99 89.31Q13 89.32 13 89.33Q13.24 89.72 13.13 90.62Q12.08 90.57 11.22 90.69Q10.37 90.81 9.75 91.13Q9.15 91.43 8.82 91.91Q8.81 91.92 8.8 91.94Q8.47 92.44 8.47 93.18Q8.47 93.71 8.65 94.13Q8.76 94.4 8.93 94.62Q9.03 94.75 9.15 94.87Q9.18 94.9 9.21 94.93Q9.51 95.2 9.92 95.35Q10.37 95.52 10.92 95.52Q11.82 95.52 12.39 95.16Q12.96 94.79 13.28 94.3L13.35 94.3L13.69 95.4L15.39 95.4Q15.2 94.83 15.15 94.18Q15.1 93.53 15.11 92.85Q15.12 92.16 15.16 91.45Q15.21 90.73 15.21 90.03Q15.21 89.39 15.08 88.88Q14.96 88.45 14.72 88.13Q14.67 88.06 14.61 88Q14.28 87.63 13.72 87.43Q13.16 87.23 12.33 87.23Q11.37 87.23 10.49 87.4ZM42.17 87.4Q41.29 87.56 40.65 87.85L41.15 89.4Q41.6 89.2 42.29 89.07Q42.99 88.94 43.61 88.94Q44.42 88.94 44.67 89.31Q44.68 89.32 44.68 89.33Q44.92 89.72 44.81 90.62Q43.76 90.57 42.9 90.69Q42.05 90.81 41.43 91.13Q40.83 91.43 40.5 91.91Q40.49 91.92 40.48 91.94Q40.15 92.44 40.15 93.18Q40.15 93.71 40.33 94.13Q40.44 94.4 40.61 94.62Q40.71 94.75 40.83 94.87Q40.86 94.9 40.89 94.93Q41.19 95.2 41.6 95.35Q42.05 95.52 42.6 95.52Q43.5 95.52 44.07 95.16Q44.64 94.79 44.96 94.3L45.03 94.3L45.37 95.4L47.07 95.4Q46.88 94.83 46.83 94.18Q46.78 93.53 46.79 92.85Q46.8 92.16 46.84 91.45Q46.89 90.73 46.89 90.03Q46.89 89.39 46.76 88.88Q46.64 88.45 46.4 88.13Q46.35 88.06 46.29 88Q45.96 87.63 45.4 87.43Q44.84 87.23 44.01 87.23Q43.05 87.23 42.17 87.4ZM91.29 87.4Q90.41 87.56 89.77 87.85L90.27 89.4Q90.72 89.2 91.41 89.07Q92.11 88.94 92.73 88.94Q93.54 88.94 93.79 89.31Q93.8 89.32 93.8 89.33Q94.04 89.72 93.93 90.62Q92.88 90.57 92.02 90.69Q91.17 90.81 90.55 91.13Q89.95 91.43 89.62 91.91Q89.61 91.92 89.6 91.94Q89.27 92.44 89.27 93.18Q89.27 93.71 89.45 94.13Q89.56 94.4 89.73 94.62Q89.83 94.75 89.95 94.87Q89.98 94.9 90.01 94.93Q90.31 95.2 90.72 95.35Q91.17 95.52 91.72 95.52Q92.62 95.52 93.19 95.16Q93.76 94.79 94.08 94.3L94.15 94.3L94.49 95.4L96.19 95.4Q96 94.83 95.95 94.18Q95.9 93.53 95.91 92.85Q95.92 92.16 95.96 91.45Q96.01 90.73 96.01 90.03Q96.01 89.39 95.88 88.88Q95.76 88.45 95.52 88.13Q95.47 88.06 95.41 88Q95.08 87.63 94.52 87.43Q93.96 87.23 93.13 87.23Q92.17 87.23 91.29 87.4ZM37.51 89.23L39.77 89.23L39.77 87.39L33.12 87.39L33.12 89.23L35.37 89.23L35.37 95.39L37.51 95.39L37.51 89.23ZM63.75 89.23L66.01 89.23L66.01 87.39L59.36 87.39L59.36 89.23L61.61 89.23L61.61 95.39L63.75 95.39L63.75 89.23ZM83.31 92.24L85.92 92.24L85.92 95.39L88 95.39L88 87.39L85.92 87.39L85.92 90.4L83.31 90.4L83.31 87.39L81.23 87.39L81.23 95.39L83.31 95.39L83.31 92.24ZM104.73 90.06L104.61 91.72L104.61 95.39L106.61 95.39L106.61 87.39L104.43 87.39L102.73 90.37L102.27 91.4L102.2 91.4L101.75 90.4L99.91 87.39L97.75 87.39L97.75 95.39L99.61 95.39L99.61 91.71L99.4 90.06L99.5 90.06L100.11 91.44L101.75 93.92L102.51 93.92L104.01 91.44L104.65 90.06L104.73 90.06ZM113.31 90.6L113.23 91.74L113.23 95.39L115.31 95.39L115.31 87.39L114 87.39L111.12 91.15L110.46 92.28L110.39 92.28L110.49 91.2L110.49 87.39L108.41 87.39L108.41 95.39L109.72 95.39L112.57 91.77L113.26 90.6L113.31 90.6ZM3 89.22Q3.34 88.92 3.95 88.92Q4.46 88.92 4.79 89.17Q4.96 89.3 5.08 89.5Q5.44 90.08 5.44 91.13Q5.44 92.59 4.99 93.22Q4.84 93.43 4.64 93.57Q4.24 93.85 3.64 93.85Q3.21 93.85 2.94 93.75Q2.86 93.72 2.77 93.67Q2.61 93.59 2.46 93.47L2.46 90.14Q2.65 89.53 3 89.23Q3 89.23 3 89.22ZM27.4 92.37Q27.31 91.92 27.31 91.39Q27.31 90.08 27.74 89.5Q27.92 89.26 28.16 89.12Q28.5 88.92 28.94 88.92Q29.49 88.92 29.84 89.19Q30.05 89.35 30.19 89.6Q30.56 90.28 30.56 91.39Q30.56 92.67 30.16 93.26Q30.02 93.47 29.83 93.6Q29.47 93.85 28.94 93.85Q28.51 93.85 28.19 93.67Q28.11 93.62 28.04 93.56Q27.83 93.4 27.69 93.15Q27.5 92.81 27.4 92.37ZM54.24 93.21Q53.92 92.56 53.92 91.39Q53.92 90.04 54.27 89.49Q54.4 89.27 54.6 89.13Q54.9 88.92 55.36 88.92Q55.89 88.92 56.2 89.19Q56.37 89.33 56.47 89.54Q56.78 90.16 56.78 91.39Q56.78 92.76 56.46 93.31Q56.35 93.5 56.19 93.62Q55.88 93.85 55.4 93.85Q54.89 93.85 54.56 93.6Q54.37 93.45 54.24 93.21ZM19.11 93.18Q18.72 92.51 18.72 91.49Q18.72 90.48 19.14 89.9Q19.25 89.75 19.39 89.64Q19.79 89.33 20.44 89.33Q21.03 89.33 21.38 89.61Q21.51 89.73 21.61 89.88Q21.97 90.44 21.97 91.49Q21.97 92.63 21.59 93.24Q21.47 93.43 21.31 93.56Q20.95 93.85 20.35 93.85Q19.88 93.85 19.55 93.64Q19.29 93.48 19.11 93.18ZM12.6 93.53Q12.24 93.8 11.61 93.8Q11.18 93.8 10.92 93.59Q10.9 93.58 10.88 93.56Q10.84 93.52 10.8 93.47Q10.62 93.23 10.62 92.86Q10.62 92.65 10.71 92.49Q10.75 92.41 10.83 92.33Q11.04 92.12 11.39 92.01Q11.74 91.9 12.19 91.87Q12.65 91.84 13.15 91.88L13.15 92.92Q12.97 93.24 12.6 93.53ZM44.28 93.53Q43.92 93.8 43.29 93.8Q42.86 93.8 42.6 93.59Q42.58 93.58 42.56 93.56Q42.52 93.52 42.48 93.47Q42.3 93.23 42.3 92.86Q42.3 92.65 42.39 92.49Q42.43 92.41 42.51 92.33Q42.72 92.12 43.07 92.01Q43.42 91.9 43.87 91.87Q44.33 91.84 44.83 91.88L44.83 92.92Q44.65 93.24 44.28 93.53ZM93.4 93.53Q93.04 93.8 92.41 93.8Q91.98 93.8 91.72 93.59Q91.7 93.58 91.68 93.56Q91.64 93.52 91.6 93.47Q91.42 93.23 91.42 92.86Q91.42 92.65 91.51 92.49Q91.55 92.41 91.63 92.33Q91.84 92.12 92.19 92.01Q92.54 91.9 92.99 91.87Q93.45 91.84 93.95 91.88L93.95 92.92Q93.77 93.24 93.4 93.53Z" fill="#6F7682" fill-opacity="1.000000" fill-rule="evenodd"/>
</svg>
