<svg width="412.504883" height="79.089355" viewBox="0 0 412.505 79.0894" fill="none" xmlns="http://www.w3.org/2000/svg" xmlns:xlink="http://www.w3.org/1999/xlink">
	<desc>
			Created with Pixso.
	</desc>
	<defs/>
	<path id="About us" d="M20.89 60.5L44.55 60.5L50.7 77.55L66.54 77.55L38.83 0L27.71 0L3.05e-5 77.55L15.06 77.55L20.89 60.5ZM87.12 0.56L72.8 0.56L72.8 75.14Q75.78 76.56 81.61 77.71Q87.44 78.87 94.47 78.87Q104.53 78.87 111.2 74.11Q113.01 72.83 114.56 71.19Q121.87 63.48 121.87 48.63Q121.87 34.77 116.63 28.01Q114.98 25.86 112.86 24.39Q108.29 21.24 101.54 21.24Q97.13 21.24 93.48 22.8Q89.86 24.33 87.55 26.96L87.12 26.96L87.12 0.56ZM251.89 22.55L244.29 22.55L244.29 34.67L251.89 34.67L251.89 62.38Q251.89 71.3 255.46 75.19Q255.55 75.29 255.64 75.38Q259.22 79.08 266.64 79.08Q268.86 79.08 271.05 78.79Q272.87 78.54 274.67 78.09Q278.61 77.12 281.59 75.67L279.07 64.69Q277.08 65.58 275.47 66.01Q273.89 66.44 271.69 66.44Q269.69 66.44 268.5 65.46Q267.79 64.88 267.36 63.96Q266.21 61.49 266.21 55.77L266.21 34.67L279.61 34.67L279.61 22.55L266.21 22.55L266.21 8.13L251.89 12.21L251.89 22.55ZM41.25 48.42L24.76 48.42L30.34 31.36L32.68 19.14L33.22 19.14L35.52 31.25L41.25 48.42ZM135.95 28.57Q129.13 36.09 129.13 50.05Q129.13 56.55 130.72 61.95Q132.33 67.32 135.58 71.14Q136.34 72.02 137.18 72.82Q139.96 75.41 143.66 77.02Q148.49 79.08 155.1 79.08Q164.77 79.08 171.01 74.45Q172.72 73.18 174.17 71.56Q180.94 64.02 180.94 50.05Q180.94 43.55 179.35 38.18Q177.77 32.79 174.57 29Q173.78 28.05 172.88 27.21Q170.18 24.67 166.54 23.12Q161.71 21.02 155.1 21.02Q145.51 21.02 139.26 25.59Q137.47 26.89 135.95 28.57ZM397.8 60.57Q398.19 61.39 398.19 62.38Q398.19 64.45 397.17 65.65Q396.78 66.1 396.25 66.44Q394.35 67.64 391.15 67.64Q388.98 67.64 386.87 67.31Q384.68 66.97 382.56 66.27Q378.39 64.9 375.87 63.48L371.89 74.14Q375.09 76.13 380.19 77.61Q385.32 79.08 391.15 79.08Q401.84 79.08 407.16 74.3Q408.64 72.98 409.71 71.37Q412.5 67.2 412.5 61.17Q412.5 56.31 410.62 53.25Q408.99 50.54 406.66 48.74Q406.34 48.49 406 48.25Q403.26 46.32 399.96 45.11Q396.66 43.9 393.89 42.86Q391.15 41.81 389.27 40.6Q388.13 39.85 387.69 38.81Q387.42 38.17 387.42 37.4Q387.42 35.56 388.31 34.4Q389.81 32.46 393.81 32.46Q395.18 32.46 396.53 32.6Q399.09 32.84 401.6 33.56Q405.46 34.67 407.99 35.63L411.18 25.29Q408.31 23.65 403.24 22.34Q398.19 21.02 391.93 21.02Q382.8 21.02 377.94 25.32Q377.07 26.08 376.36 26.97Q373.1 31.05 373.1 37.73Q373.1 42.7 374.98 45.84Q376.7 48.69 379.14 50.64Q379.37 50.82 379.6 50.99Q380.65 51.77 381.78 52.42Q383.61 53.47 385.64 54.19Q388.95 55.34 391.69 56.45Q394.45 57.55 396.31 58.86Q397.34 59.58 397.8 60.57ZM204.58 53.79L204.58 22.55L190.3 22.55L190.3 56.77Q190.3 63.27 191.45 67.56Q192.61 71.83 194.81 74.36Q195.6 75.27 196.54 75.99Q198.2 77.28 200.31 77.98Q203.62 79.08 207.78 79.08Q213.96 79.08 218.47 76.35Q222.19 74.08 224.56 70.84Q225.06 70.15 225.5 69.42L225.93 69.42L228.46 77.55L239.25 77.55Q238.37 74.04 237.91 69.68Q237.48 65.33 237.48 60.82L237.48 22.55L223.19 22.55L223.19 58.08Q222.35 60.35 220.92 62.16Q220.13 63.16 219.17 64.02Q218.44 64.67 217.62 65.14Q215.38 66.44 212.4 66.44Q208.79 66.44 207.01 64.63Q206.52 64.13 206.17 63.48Q204.58 60.5 204.58 53.79ZM329.98 53.79L329.98 22.55L315.7 22.55L315.7 56.77Q315.7 63.27 316.85 67.56Q318.01 71.83 320.21 74.36Q321 75.27 321.94 75.99Q323.6 77.28 325.71 77.98Q329.02 79.08 333.18 79.08Q339.36 79.08 343.87 76.35Q347.59 74.08 349.96 70.84Q350.46 70.15 350.9 69.42L351.33 69.42L353.86 77.55L364.65 77.55Q363.77 74.04 363.31 69.68Q362.88 65.33 362.88 60.82L362.88 22.55L348.59 22.55L348.59 58.08Q347.75 60.35 346.32 62.16Q345.53 63.16 344.57 64.02Q343.84 64.67 343.02 65.14Q340.78 66.44 337.8 66.44Q334.19 66.44 332.41 64.63Q331.92 64.13 331.57 63.48Q329.98 60.5 329.98 53.79ZM144.52 56.77Q143.87 53.68 143.87 50.05Q143.87 41.03 146.83 37.08Q148.09 35.41 149.75 34.44Q152.04 33.11 155.1 33.11Q158.85 33.11 161.25 34.91Q162.71 36.01 163.67 37.78Q166.22 42.45 166.22 50.05Q166.22 58.86 163.45 62.94Q162.5 64.35 161.2 65.27Q158.77 67 155.1 67Q152.12 67 149.97 65.74Q149.41 65.41 148.91 65.01Q147.48 63.87 146.51 62.17Q145.19 59.86 144.52 56.77ZM91.26 35.09Q93.65 33.32 97.35 33.32Q100.07 33.32 102.03 34.54Q107.12 37.7 107.12 49.06Q107.12 58.3 104.09 62.54Q102.99 64.1 101.5 65.08Q98.94 66.78 95.25 66.78Q92.94 66.78 90.9 66.46Q88.86 66.11 87.12 65.23L87.12 41.25Q88.43 37.4 90.9 35.36Q91.08 35.22 91.26 35.09Z" fill="#F1F2F6" fill-opacity="1.000000" fill-rule="evenodd"/>
</svg>
