<svg width="30.000000" height="30.000000" viewBox="0 0 30 30" fill="none" xmlns="http://www.w3.org/2000/svg" xmlns:xlink="http://www.w3.org/1999/xlink">
	<desc>
			Created with Pixso.
	</desc>
	<defs>
		<clipPath id="clip5_5739">
			<rect id="car 1" rx="-0.500000" width="29.000000" height="29.000000" transform="translate(0.500000 0.500000)" fill="white" fill-opacity="0"/>
		</clipPath>
	</defs>
	<rect id="car 1" rx="-0.500000" width="29.000000" height="29.000000" transform="translate(0.500000 0.500000)" fill="#FFFFFF" fill-opacity="0"/>
	<g clip-path="url(#clip5_5739)">
		<path id="Vector" d="M7.5 21.24L7.5 23.74L6.25 23.74L6.25 21.24L6.25 13.74L8.75 6.24L21.25 6.24L23.75 13.74L23.75 21.24L23.75 23.74L22.5 23.74L22.5 21.24M23.75 13.74L6.25 13.74M6.25 13.74L23.75 13.74M6.25 21.24L6.25 13.74M23.75 21.24L23.75 13.74M23.75 21.24L22.5 21.24L7.5 21.24L6.25 21.24M6.25 21.24L7.5 21.24M23.75 21.24L22.5 21.24" stroke="#F1F2F6" stroke-opacity="1.000000" stroke-width="2.000000"/>
		<path id="Vector" d="M10 18.75C9.31 18.75 8.75 18.19 8.75 17.5C8.75 16.8 9.31 16.25 10 16.25C10.68 16.25 11.25 16.8 11.25 17.5C11.25 18.19 10.68 18.75 10 18.75Z" stroke="#F1F2F6" stroke-opacity="1.000000" stroke-width="2.000000"/>
		<path id="Vector" d="M20 18.75C19.31 18.75 18.75 18.19 18.75 17.5C18.75 16.8 19.31 16.25 20 16.25C20.68 16.25 21.25 16.8 21.25 17.5C21.25 18.19 20.68 18.75 20 18.75Z" stroke="#F1F2F6" stroke-opacity="1.000000" stroke-width="2.000000"/>
	</g>
</svg>
