<svg width="30.000000" height="30.000000" viewBox="0 0 30 30" fill="none" xmlns="http://www.w3.org/2000/svg" xmlns:xlink="http://www.w3.org/1999/xlink">
	<desc>
			Created with Pixso.
	</desc>
	<defs>
		<clipPath id="clip5_4814">
			<rect id="cart 3" rx="-0.500000" width="28.999878" height="29.000000" transform="translate(0.500000 0.500000)" fill="white" fill-opacity="0"/>
		</clipPath>
	</defs>
	<rect id="cart 3" rx="-0.500000" width="28.999878" height="29.000000" transform="translate(0.500000 0.500000)" fill="#FFFFFF" fill-opacity="0"/>
	<g clip-path="url(#clip5_4814)">
		<path id="Vector" d="M26.25 7.5L24.37 18.75L9.37 18.75L7.5 7.5L26.25 7.5Z" stroke="#4798DE" stroke-opacity="1.000000" stroke-width="2.000000"/>
		<path id="Vector" d="M11.25 25C10.56 25 10 24.44 10 23.75C10 23.05 10.56 22.5 11.25 22.5C11.93 22.5 12.5 23.05 12.5 23.75C12.5 24.44 11.93 25 11.25 25Z" stroke="#4798DE" stroke-opacity="1.000000" stroke-width="2.000000"/>
		<path id="Vector" d="M22.5 25C21.81 25 21.25 24.44 21.25 23.75C21.25 23.05 21.81 22.5 22.5 22.5C23.18 22.5 23.75 23.05 23.75 23.75C23.75 24.44 23.18 25 22.5 25Z" stroke="#4798DE" stroke-opacity="1.000000" stroke-width="2.000000"/>
		<path id="Vector" d="M7.5 7.5L3.75 7.5" stroke="#4798DE" stroke-opacity="1.000000" stroke-width="2.000000" stroke-linecap="square"/>
	</g>
</svg>
