<svg width="490.484375" height="101.862793" viewBox="0 0 490.484 101.863" fill="none" xmlns="http://www.w3.org/2000/svg" xmlns:xlink="http://www.w3.org/1999/xlink">
	<desc>
			Created with Pixso.
	</desc>
	<defs/>
	<path id="Сategories" d="M45.57 78.98Q51.02 77.88 54.54 75.35L51.48 63.02Q48.93 64.58 45.52 65.58Q42.1 66.57 37.16 66.57Q31.87 66.57 27.84 64.64Q25.58 63.54 23.74 61.96Q22.32 60.74 21.16 59.24Q18.47 55.77 17.13 50.89Q15.81 46 15.81 40.04Q15.81 26.39 21.37 19.92Q23.63 17.28 26.49 15.71Q30.65 13.42 36.06 13.42Q41 13.42 44.47 13.99Q47.96 14.52 50.48 15.73L53.44 2.98Q50.48 1.77 45.92 0.88Q41.35 0 34.75 0Q28.6 0 22.42 2.04Q21.25 2.43 20.11 2.91Q15.31 4.97 11.25 8.75Q6.25 13.42 3.11 21.08Q0 28.73 0 40.04Q0 50.94 2.79 58.59Q5.61 66.22 10.33 71.03Q13.24 73.97 16.7 75.91Q18.87 77.13 21.26 77.96Q21.45 78.02 21.64 78.08Q27.7 80.08 34.42 80.08Q40.14 80.08 45.57 78.98ZM367.54 5.35Q367.06 6.6 367.06 8.02Q367.06 9.63 367.66 10.96Q368.25 12.3 369.43 13.37Q369.52 13.45 369.61 13.53Q371.95 15.52 375.98 15.52Q379.83 15.52 382.33 13.68Q382.53 13.53 382.72 13.37Q384.22 12.13 384.86 10.55Q385.33 9.38 385.33 8.02Q385.33 6.82 384.95 5.75Q384.34 4 382.72 2.6Q382.38 2.3 382.01 2.04Q379.59 0.34 375.98 0.34Q372.18 0.34 369.88 2.2Q369.64 2.39 369.43 2.6Q368.13 3.84 367.54 5.35ZM119.99 23.55L112.39 23.55L112.39 35.66L119.99 35.66L119.99 63.37Q119.99 72.29 123.57 76.18Q123.65 76.28 123.74 76.37Q127.32 80.08 134.74 80.08Q136.96 80.08 139.15 79.78Q140.97 79.54 142.77 79.08Q146.71 78.12 149.7 76.67L147.17 65.68Q145.18 66.57 143.57 67Q141.99 67.43 139.78 67.43Q137.8 67.43 136.6 66.45Q135.89 65.88 135.46 64.96Q134.31 62.49 134.31 56.77L134.31 35.66L147.71 35.66L147.71 23.55L134.31 23.55L134.31 9.13L119.99 13.21L119.99 23.55ZM191 78.28Q196.67 76.45 199.97 73.82L195.24 64.48Q193.36 65.9 189.79 67.27Q186.22 68.64 181.71 68.64Q174.46 68.64 171.21 65.12Q167.96 61.6 167.64 54.67L200.61 54.67Q201.18 51.83 201.45 49.19Q201.72 46.54 201.72 44.23Q201.72 37.83 199.84 33.56Q197.98 29.27 194.89 26.74Q194.04 26.04 193.11 25.45Q190.72 23.91 187.86 23.12Q187.06 22.89 186.24 22.72Q183.06 22.02 179.72 22.02Q169.22 22.02 162.65 27.1Q161.38 28.09 160.25 29.27Q153.32 36.52 153.32 51.05Q153.32 64.58 159.47 72.34Q160.35 73.44 161.36 74.38Q167.53 80.08 178.97 80.08Q185.33 80.08 191 78.28ZM274.43 29.56Q267.61 37.08 267.61 51.05Q267.61 57.55 269.2 62.94Q270.81 68.32 274.06 72.13Q274.82 73.02 275.67 73.81Q278.44 76.41 282.14 78.01Q286.97 80.08 293.58 80.08Q303.25 80.08 309.49 75.45Q311.2 74.18 312.65 72.56Q319.42 65.01 319.42 51.05Q319.42 44.55 317.83 39.18Q316.25 33.78 313.05 29.99Q312.26 29.05 311.36 28.21Q308.66 25.67 305.02 24.11Q300.19 22.02 293.58 22.02Q283.99 22.02 277.74 26.58Q275.95 27.89 274.43 29.56ZM432.56 78.28Q438.23 76.45 441.53 73.82L436.8 64.48Q434.92 65.9 431.35 67.27Q427.78 68.64 423.27 68.64Q416.02 68.64 412.77 65.12Q409.52 61.6 409.2 54.67L442.17 54.67Q442.74 51.83 443.01 49.19Q443.28 46.54 443.28 44.23Q443.28 37.83 441.4 33.56Q439.54 29.27 436.45 26.74Q435.6 26.04 434.67 25.45Q432.28 23.91 429.42 23.12Q428.62 22.89 427.8 22.72Q424.62 22.02 421.28 22.02Q410.78 22.02 404.21 27.1Q402.94 28.09 401.81 29.27Q394.88 36.52 394.88 51.05Q394.88 64.58 401.03 72.34Q401.91 73.44 402.92 74.38Q409.09 80.08 420.53 80.08Q426.89 80.08 432.56 78.28ZM475.78 61.56Q476.17 62.38 476.17 63.37Q476.17 65.44 475.15 66.64Q474.76 67.1 474.23 67.43Q472.33 68.64 469.13 68.64Q466.96 68.64 464.85 68.31Q462.66 67.96 460.54 67.27Q456.37 65.9 453.85 64.48L449.88 75.14Q453.07 77.12 458.17 78.6Q463.3 80.08 469.13 80.08Q479.82 80.08 485.14 75.3Q486.62 73.97 487.69 72.36Q490.48 68.2 490.48 62.17Q490.48 57.3 488.6 54.24Q486.97 51.53 484.64 49.73Q484.32 49.48 483.98 49.25Q481.24 47.31 477.94 46.11Q474.64 44.9 471.87 43.85Q469.13 42.8 467.25 41.59Q466.11 40.85 465.67 39.81Q465.4 39.16 465.4 38.4Q465.4 36.55 466.29 35.39Q467.79 33.46 471.79 33.46Q473.16 33.46 474.51 33.59Q477.07 33.84 479.58 34.56Q483.44 35.66 485.97 36.63L489.16 26.29Q486.29 24.65 481.22 23.33Q476.17 22.02 469.91 22.02Q460.78 22.02 455.92 26.31Q455.05 27.08 454.34 27.96Q451.08 32.04 451.08 38.72Q451.08 43.69 452.96 46.83Q454.68 49.68 457.12 51.63Q457.35 51.81 457.58 51.99Q458.63 52.76 459.76 53.41Q461.59 54.47 463.63 55.18Q466.93 56.34 469.67 57.44Q472.43 58.54 474.29 59.86Q475.32 60.58 475.78 61.56ZM252.31 95.26Q257.82 89.58 257.82 78.55L257.82 25.53Q254.31 24.22 248.75 23.23Q243.19 22.23 236.15 22.23Q224.47 22.23 217.62 27.99Q216.6 28.85 215.69 29.83Q208.65 37.4 208.65 52.15Q208.65 66.22 213.86 72.83Q214.94 74.19 216.25 75.27Q221.3 79.43 229.79 79.43Q238.93 79.43 242.9 74.9Q243.18 74.59 243.43 74.25L243.86 74.25L243.86 77.77Q243.86 83.6 241.15 86.85Q238.46 90.1 231 90.1Q226.03 90.1 222.67 89.1Q219.31 88.11 216.79 87.11L213.83 98.45Q216.14 99.66 220.71 100.76Q225.28 101.86 233.2 101.86Q244.85 101.86 251.32 96.19Q251.84 95.74 252.31 95.26ZM353.54 35.77Q356.28 35.77 359.69 36.98L361.57 23.55Q357.91 22.34 355.07 22.34Q351.71 22.34 349.03 23.68Q348.28 24.06 347.58 24.54L347.57 24.54Q344.4 26.75 342.53 30.8L342.1 30.8L340.43 23.55L329.31 23.55L329.31 78.55L343.63 78.55L343.63 43.02Q344.1 41.31 345.06 39.94Q345.89 38.74 347.09 37.81Q347.46 37.51 347.86 37.26Q350.23 35.77 353.54 35.77ZM73.68 23.6Q67.63 24.76 63.23 26.74L66.64 37.4Q69.73 35.98 74.51 35.1Q79.29 34.21 83.59 34.21Q89.15 34.21 90.85 36.77Q90.9 36.85 90.95 36.92Q92.61 39.61 91.83 45.76Q84.58 45.43 78.7 46.27Q72.82 47.1 68.57 49.25Q64.46 51.31 62.21 54.63Q62.14 54.73 62.08 54.83Q59.82 58.3 59.82 63.37Q59.82 67 61.03 69.93Q61.79 71.76 62.95 73.29Q63.63 74.18 64.44 74.98Q64.67 75.2 64.9 75.41Q66.96 77.24 69.73 78.28Q72.82 79.43 76.66 79.43Q82.81 79.43 86.7 76.96Q90.62 74.47 92.83 71.05L93.36 71.05L95.7 78.65L107.35 78.65Q106.04 74.71 105.69 70.25Q105.37 65.79 105.42 61.06Q105.47 56.34 105.8 51.45Q106.15 46.54 106.15 41.7Q106.15 37.3 105.21 33.78Q104.43 30.86 102.74 28.62Q102.39 28.16 102.01 27.74Q99.75 25.19 95.89 23.82Q92.05 22.45 86.33 22.45Q79.75 22.45 73.68 23.6ZM383.45 23.55L369.16 23.55L369.16 78.55L383.45 78.55L383.45 23.55ZM172.2 35.75Q174.86 33.46 179.51 33.46Q183.08 33.46 185.24 35.2Q186.01 35.82 186.6 36.65Q188.85 39.82 188.42 45.76L167.96 45.76Q168.49 40.14 171.18 36.81Q171.65 36.23 172.2 35.75ZM413.76 35.75Q416.42 33.46 421.07 33.46Q424.64 33.46 426.8 35.2Q427.57 35.82 428.16 36.65Q430.41 39.82 429.98 45.76L409.52 45.76Q410.05 40.14 412.74 36.81Q413.21 36.23 413.76 35.75ZM283 57.76Q282.35 54.67 282.35 51.05Q282.35 42.02 285.31 38.08Q286.57 36.4 288.23 35.43Q290.52 34.1 293.58 34.1Q297.34 34.1 299.73 35.91Q301.19 37 302.15 38.77Q304.7 43.45 304.7 51.05Q304.7 59.86 301.93 63.94Q300.98 65.35 299.69 66.26Q297.25 67.99 293.58 67.99Q290.6 67.99 288.45 66.73Q287.89 66.4 287.39 66Q285.96 64.87 284.99 63.16Q283.67 60.85 283 57.76ZM240.07 66.14Q237.82 67.99 233.63 67.99Q231.18 67.99 229.29 66.96Q227.37 65.92 226.03 63.8Q223.4 59.61 223.4 51.58Q223.4 42.59 226.46 38.45Q227.75 36.71 229.48 35.71Q231.86 34.32 235.05 34.32Q240.13 34.32 243.54 35.77L243.54 60.5Q242.33 64.26 240.07 66.14ZM88.21 65.74Q85.68 67.64 81.38 67.64Q78.43 67.64 76.65 66.2Q76.5 66.08 76.36 65.95Q76.06 65.67 75.81 65.34Q74.56 63.74 74.56 61.17Q74.56 59.74 75.17 58.63Q75.49 58.04 75.99 57.55Q77.44 56.1 79.85 55.34Q82.27 54.57 85.39 54.35Q88.53 54.14 91.94 54.46L91.94 61.6Q90.73 63.8 88.21 65.74Z" fill="#F1F2F6" fill-opacity="1.000000" fill-rule="evenodd"/>
</svg>
