<svg width="26.286133" height="23.305420" viewBox="0 0 26.2861 23.3054" fill="none" xmlns="http://www.w3.org/2000/svg" xmlns:xlink="http://www.w3.org/1999/xlink">
	<desc>
			Created with Pixso.
	</desc>
	<defs>
		<clipPath id="clip5_5028">
			<rect id="dolar 2" rx="-0.500000" width="17.750000" height="16.499634" transform="translate(4.268066 5.305664)" fill="white" fill-opacity="0"/>
		</clipPath>
	</defs>
	<path id="Vector 51" d="M4.39 8.59L4.39 22.3L21.89 22.3L21.89 8.59" stroke="#4798DE" stroke-opacity="1.000000" stroke-width="2.000000"/>
	<path id="Vector 52" d="" fill="#C4C4C4" fill-opacity="1.000000" fill-rule="nonzero"/>
	<path id="Vector 52" d="M0.64 11.8L13.14 1.3L25.64 11.8" stroke="#4798DE" stroke-opacity="1.000000" stroke-width="2.000000"/>
	<rect id="dolar 2" rx="-0.500000" width="17.750000" height="16.499634" transform="translate(4.268066 5.305664)" fill="#FFFFFF" fill-opacity="0"/>
	<g clip-path="url(#clip5_5028)">
		<path id="Vector" d="M13.14 9.18L13.14 7.72L13.14 9.18M13.14 17.92L13.14 19.38L13.14 17.92M15.87 10.63C15.61 9.66 14.7 9.18 13.14 9.18C10.79 9.18 10.4 10.6 10.4 11.36C10.4 14.38 15.87 12.8 15.87 15.74C15.87 16.5 15.48 17.92 13.14 17.92C11.58 17.92 10.66 17.44 10.4 16.47" stroke="#4798DE" stroke-opacity="1.000000" stroke-width="2.000000" stroke-linecap="square"/>
	</g>
</svg>
