<svg width="30.000000" height="30.000000" viewBox="0 0 30 30" fill="none" xmlns="http://www.w3.org/2000/svg" xmlns:xlink="http://www.w3.org/1999/xlink">
	<desc>
			Created with Pixso.
	</desc>
	<defs>
		<clipPath id="clip5_5018">
			<rect id="ok 6" rx="-0.500000" width="9.000000" height="9.000000" transform="translate(1.500000 15.500000)" fill="white" fill-opacity="0"/>
		</clipPath>
		<clipPath id="clip5_5014">
			<rect id="credit-card 2" rx="-0.500000" width="29.000000" height="29.000000" transform="translate(0.500000 0.500000)" fill="white" fill-opacity="0"/>
		</clipPath>
	</defs>
	<rect id="credit-card 2" rx="-0.500000" width="29.000000" height="29.000000" transform="translate(0.500000 0.500000)" fill="#FFFFFF" fill-opacity="0"/>
	<g clip-path="url(#clip5_5014)">
		<path id="Vector" d="M25 6.25C26.38 6.25 27.5 7.36 27.5 8.75L27.5 21.25C27.5 22.63 26.38 23.75 25 23.75L5 23.75C3.61 23.75 2.5 22.63 2.5 21.25L2.5 8.75C2.5 7.36 3.61 6.25 5 6.25L25 6.25Z" stroke="#4798DE" stroke-opacity="1.000000" stroke-width="2.000000"/>
		<path id="Vector" d="M2.5 17.5L27.5 17.5" stroke="#4798DE" stroke-opacity="1.000000" stroke-width="2.000000" stroke-linecap="square"/>
		<circle id="Ellipse 49" cx="6.000000" cy="20.000000" r="6.000000" fill="#4798DE" fill-opacity="1.000000"/>
		<rect id="ok 6" rx="-0.500000" width="9.000000" height="9.000000" transform="translate(1.500000 15.500000)" fill="#FFFFFF" fill-opacity="0"/>
		<g clip-path="url(#clip5_5018)">
			<path id="Vector" d="M2.66 20.41L4.75 22.5L9.33 17.91" stroke="#FFFFFF" stroke-opacity="1.000000" stroke-width="2.000000" stroke-linecap="square"/>
		</g>
	</g>
</svg>
