<svg width="382.031250" height="100.761719" viewBox="0 0 382.031 100.762" fill="none" xmlns="http://www.w3.org/2000/svg" xmlns:xlink="http://www.w3.org/1999/xlink">
	<desc>
			Created with Pixso.
	</desc>
	<defs/>
	<path id="Delivery" d="M158.66 5Q158.18 6.25 158.18 7.68Q158.18 9.28 158.77 10.61Q159.36 11.95 160.54 13.02Q160.63 13.1 160.72 13.18Q163.06 15.17 167.09 15.17Q170.94 15.17 173.44 13.33Q173.64 13.18 173.83 13.02Q175.33 11.78 175.97 10.2Q176.44 9.03 176.44 7.68Q176.44 6.47 176.06 5.4Q175.45 3.65 173.83 2.25Q173.49 1.95 173.12 1.69Q170.7 0 167.09 0Q163.29 0 160.99 1.86Q160.76 2.04 160.54 2.25Q159.24 3.49 158.66 5ZM5.2 0.67Q2.3 0.88 -0.01 1.2L-0.01 78.31Q1.42 78.52 4.26 78.68Q7.14 78.87 10.25 79.03Q13.39 79.19 16.32 79.3Q19.25 79.41 21 79.41Q32.11 79.41 39.63 76Q47.18 72.59 51.8 66.97Q53.26 65.2 54.46 63.26Q57.04 59.07 58.38 54.11Q60.37 46.86 60.37 39.04Q60.37 30.45 58.27 23.31Q56.36 16.72 52.38 11.83Q52.05 11.41 51.69 11.01Q47.18 5.82 39.9 2.98Q32.65 0.1 22.42 0.1Q20.11 0.1 17.18 0.16Q14.28 0.21 11.19 0.32Q8.13 0.42 5.2 0.67ZM142.43 65.33Q141.44 63.56 141.44 59.72L141.44 1.2L127.15 1.2L127.15 67.19Q127.15 73.9 130.46 76.83Q133.76 79.73 140.02 79.73Q143.83 79.73 147.42 78.86Q147.45 78.85 147.48 78.84Q151.13 77.98 152.88 77.1L151.35 65.87Q149.47 66.65 148.21 66.87Q146.94 67.08 145.63 67.08Q144.33 67.08 143.45 66.47Q142.84 66.05 142.43 65.33ZM18.74 13.64Q21.21 13.53 23.63 13.53Q29.91 13.53 33.97 15.84Q37.43 17.8 39.66 20.71Q40.05 21.23 40.41 21.77Q40.48 21.87 40.54 21.97Q42.8 25.52 43.66 29.97Q44.55 34.53 44.55 39.04Q44.55 44.2 43.55 49.11Q42.56 54 40.09 57.73Q39.56 58.53 38.96 59.26Q36.71 61.95 33.38 63.72Q29.13 65.98 22.77 65.98Q22.2 65.98 21.1 65.93Q20 65.87 18.79 65.82Q17.58 65.76 16.54 65.71Q15.49 65.66 15.06 65.55L15.06 13.96Q16.27 13.75 18.74 13.64ZM105.86 77.93Q111.53 76.1 114.83 73.47L110.1 64.13Q108.23 65.55 104.65 66.92Q101.08 68.29 96.57 68.29Q89.32 68.29 86.07 64.77Q82.82 61.25 82.5 54.32L115.48 54.32Q116.04 51.48 116.31 48.85Q116.58 46.19 116.58 43.88Q116.58 37.49 114.7 33.22Q112.84 28.92 109.76 26.39Q108.9 25.69 107.98 25.1Q105.59 23.56 102.72 22.77Q101.92 22.54 101.11 22.37Q97.92 21.67 94.58 21.67Q84.08 21.67 77.52 26.75Q76.24 27.74 75.11 28.92Q68.18 36.17 68.18 50.7Q68.18 64.23 74.33 71.99Q75.21 73.09 76.23 74.03Q82.4 79.73 93.83 79.73Q100.2 79.73 105.86 77.93ZM275.37 77.93Q281.04 76.1 284.34 73.47L279.61 64.13Q277.74 65.55 274.16 66.92Q270.59 68.29 266.08 68.29Q258.83 68.29 255.58 64.77Q252.33 61.25 252.01 54.32L284.99 54.32Q285.55 51.48 285.82 48.85Q286.09 46.19 286.09 43.88Q286.09 37.49 284.21 33.22Q282.35 28.92 279.26 26.39Q278.41 25.69 277.49 25.1Q275.1 23.56 272.23 22.77Q271.43 22.54 270.62 22.37Q267.43 21.67 264.09 21.67Q253.59 21.67 247.03 26.75Q245.75 27.74 244.62 28.92Q237.69 36.17 237.69 50.7Q237.69 64.23 243.84 71.99Q244.72 73.09 245.74 74.03Q251.91 79.73 263.34 79.73Q269.71 79.73 275.37 77.93ZM320.43 35.42Q323.17 35.42 326.58 36.63L328.23 24.8L350.55 78.2Q349.34 83.81 346.98 85.96Q344.82 87.92 342.53 88.09Q342.31 88.11 342.09 88.11Q341.93 88.11 341.76 88.1Q340.27 88.04 338.79 87.44L336.16 98.88Q339.57 100.76 345.29 100.76Q348.22 100.76 350.55 99.56Q351.26 99.2 351.92 98.72Q354.74 96.67 357.05 92.94Q359.36 89.21 361.27 84.08Q363.2 78.98 365.3 72.8L382.03 23.2L367.28 23.2L358.9 54L357.48 62.68L356.84 62.68L354.85 54.11L344.73 23.2L328.46 23.2Q324.81 21.99 321.96 21.99Q318.61 21.99 315.92 23.33Q315.17 23.71 314.47 24.19L314.46 24.2Q311.3 26.4 309.42 30.45L308.99 30.45L307.32 23.2L296.21 23.2L296.21 78.2L310.52 78.2L310.52 42.67Q310.99 40.96 311.95 39.59Q312.78 38.4 313.98 37.46Q314.36 37.16 314.76 36.91Q317.12 35.42 320.43 35.42ZM174.56 23.2L160.27 23.2L160.27 78.2L174.56 78.2L174.56 23.2ZM209.55 60.5L207.67 52.01L197.43 23.2L180.84 23.2L204.68 78.74L213.39 78.74L236.37 23.2L220.99 23.2L211.64 51.8L210.08 60.5L209.55 60.5ZM87.07 35.4Q89.72 33.11 94.37 33.11Q97.94 33.11 100.11 34.85Q100.87 35.47 101.46 36.3Q103.71 39.47 103.28 45.41L82.82 45.41Q83.36 39.79 86.04 36.46Q86.51 35.88 87.07 35.4ZM256.58 35.4Q259.24 33.11 263.88 33.11Q267.45 33.11 269.62 34.85Q270.38 35.47 270.97 36.3Q273.22 39.47 272.79 45.41L252.33 45.41Q252.87 39.79 255.55 36.46Q256.02 35.88 256.58 35.4Z" fill="#F1F2F6" fill-opacity="1.000000" fill-rule="evenodd"/>
</svg>
