<svg width="25.000000" height="25.000000" viewBox="0 0 25 25" fill="none" xmlns="http://www.w3.org/2000/svg" xmlns:xlink="http://www.w3.org/1999/xlink">
	<desc>
			Created with Pixso.
	</desc>
	<defs>
		<clipPath id="clip5_5007">
			<rect id="dolar 1" rx="-0.500000" width="24.000000" height="24.000000" transform="translate(0.500000 0.500000)" fill="white" fill-opacity="0"/>
		</clipPath>
	</defs>
	<rect id="dolar 1" rx="-0.500000" width="24.000000" height="24.000000" transform="translate(0.500000 0.500000)" fill="#FFFFFF" fill-opacity="0"/>
	<g clip-path="url(#clip5_5007)">
		<circle id="Ellipse 50" cx="12.500000" cy="12.500000" r="12.500000" fill="#FFFFFF" fill-opacity="0"/>
		<circle id="Ellipse 50" cx="12.500000" cy="12.500000" r="11.500000" stroke="#4798DE" stroke-opacity="1.000000" stroke-width="2.000000"/>
		<path id="Vector" d="M12.5 6.25L12.5 4.16L12.5 6.25M12.5 18.75L12.5 20.83L12.5 18.75M16.14 8.33C15.79 6.94 14.58 6.25 12.5 6.25C9.37 6.25 8.85 8.28 8.85 9.37C8.85 13.68 16.14 11.42 16.14 15.62C16.14 16.71 15.62 18.75 12.5 18.75C10.41 18.75 9.2 18.05 8.85 16.66" stroke="#4798DE" stroke-opacity="1.000000" stroke-width="2.000000" stroke-linecap="square"/>
	</g>
</svg>
