<svg width="102.000000" height="25.000000" viewBox="0 0 102 25" fill="none" xmlns="http://www.w3.org/2000/svg" xmlns:xlink="http://www.w3.org/1999/xlink">
	<desc>
			Created with Pixso.
	</desc>
	<defs/>
	<rect id="Rectangle 651" rx="2.000000" width="102.000000" height="25.000000" fill="#6CDB7E" fill-opacity="1.000000"/>
	<rect id="Rectangle 651" x="0.500000" y="0.500000" rx="2.000000" width="101.000000" height="24.000000" stroke="#6CDB7E" stroke-opacity="1.000000" stroke-width="1.000000"/>
	<path id="ХИТ ПРОДАЖ" d="M55.81 8.94Q54.81 10.17 54.81 12.44Q54.81 13.51 55.04 14.38Q55.28 15.25 55.75 15.88Q55.94 16.12 56.17 16.33Q56.51 16.63 56.95 16.84Q57.68 17.18 58.67 17.18Q59.97 17.18 60.85 16.57Q61.22 16.31 61.52 15.95Q62.53 14.72 62.53 12.44Q62.53 11.38 62.3 10.51Q62.06 9.64 61.58 9.01Q61.38 8.75 61.14 8.55Q60.8 8.25 60.37 8.05Q59.65 7.71 58.67 7.71Q57.35 7.71 56.47 8.33Q56.1 8.58 55.81 8.94ZM49 7.83Q48.35 7.88 47.8 7.98L47.8 17L49.58 17L49.58 13.86Q49.65 13.88 49.8 13.89Q49.95 13.9 50.11 13.91Q50.26 13.91 50.4 13.91L50.61 13.91Q51.28 13.91 51.91 13.75Q51.91 13.75 51.92 13.75Q52.45 13.6 52.88 13.32Q52.96 13.26 53.04 13.2Q53.14 13.12 53.23 13.04Q53.6 12.7 53.83 12.23Q54.14 11.64 54.14 10.78Q54.14 9.83 53.79 9.24Q53.51 8.77 53.11 8.46Q53.01 8.38 52.9 8.32Q52.89 8.31 52.89 8.31Q52.35 7.98 51.67 7.88Q50.99 7.77 50.31 7.77Q49.66 7.77 49 7.83ZM74.23 14.98L77.03 14.98L77.75 17L81.4 17L83.49 13.07L83.96 12.89L83.96 17L85.65 17L85.65 13.04L86.15 13.04L88.25 17L90.39 17L88 12.88L87.26 12.33L87.87 11.89L89.99 7.9L87.99 7.9L86.1 11.76L85.65 11.94L85.65 7.9L83.96 7.9L83.96 11.78L83.45 11.78L81.56 7.9L79.5 7.9L81.72 12.02L82.4 12.5L81.69 13.01L79.51 16.67L76.35 7.83L75.04 7.83L71.76 17L73.54 17L74.23 14.98ZM12.07 7.9L14.6 12.37L11.81 17L13.74 17L15.36 14.19L15.69 13.22L16.04 14.19L17.64 17L19.76 17L17.01 12.28L19.63 7.9L17.69 7.9L16.23 10.52L15.93 11.44L15.62 10.52L14.21 7.9L12.07 7.9ZM26.09 10.77L25.99 11.95L25.99 17L27.77 17L27.77 7.9L26.44 7.9L23.05 12.81L22.42 14.07L22.34 14.07L22.47 12.85L22.47 7.9L20.69 7.9L20.69 17L22.03 17L25.42 11.99L26.03 10.77L26.09 10.77ZM33.15 9.48L35.8 9.48L35.8 7.9L28.71 7.9L28.71 9.48L31.37 9.48L31.37 17L33.15 17L33.15 9.48ZM41.28 9.48L44.46 9.48L44.46 17L46.24 17L46.24 7.9L39.5 7.9L39.5 17L41.28 17L41.28 9.48ZM70.28 18.62L71.54 18.62L71.54 15.41L70.38 15.41L70.38 7.9L64.94 7.9Q64.95 9.76 64.81 11.11Q64.66 12.47 64.46 13.38Q64.25 14.28 64.04 14.77Q63.83 15.27 63.74 15.41L62.78 15.41L62.78 18.62L64.04 18.62L64.24 17L70.09 17L70.28 18.62ZM49.96 9.32Q50.19 9.3 50.45 9.3Q50.79 9.3 51.12 9.37Q51.44 9.43 51.7 9.6Q51.77 9.65 51.83 9.71Q51.99 9.85 52.1 10.05Q52.26 10.33 52.26 10.76Q52.26 11.26 52.1 11.57Q51.97 11.82 51.78 11.98Q51.72 12.02 51.66 12.06Q51.39 12.24 51.04 12.3Q50.89 12.33 50.73 12.35Q50.54 12.37 50.35 12.37L50.19 12.37Q50.08 12.37 49.96 12.36Q49.85 12.35 49.74 12.34Q49.64 12.33 49.58 12.31L49.58 9.37Q49.73 9.34 49.96 9.32ZM56.8 13.71Q56.68 13.13 56.68 12.44Q56.68 10.82 57.2 10.06Q57.44 9.7 57.78 9.51Q58.17 9.3 58.67 9.3Q59.22 9.3 59.59 9.54Q59.66 9.58 59.72 9.63Q60.01 9.86 60.2 10.21Q60.44 10.64 60.55 11.21Q60.66 11.78 60.66 12.44Q60.66 14.11 60.14 14.85Q59.91 15.18 59.59 15.36Q59.2 15.59 58.67 15.59Q58.16 15.59 57.79 15.36Q57.78 15.36 57.77 15.36Q57.72 15.32 57.67 15.28Q57.36 15.06 57.16 14.71Q56.92 14.29 56.8 13.71ZM68.6 9.48L68.6 15.41L65.63 15.41Q65.92 14.74 66.22 13.27Q66.51 11.8 66.59 9.48L68.6 9.48ZM76.64 13.55L74.69 13.55L75.35 11.54L75.63 10.09L75.69 10.09L75.96 11.52L76.64 13.55Z" fill="#FFFFFF" fill-opacity="1.000000" fill-rule="evenodd"/>
</svg>
