<svg width="775.058105" height="101.110840" viewBox="0 0 775.058 101.111" fill="none" xmlns="http://www.w3.org/2000/svg" xmlns:xlink="http://www.w3.org/1999/xlink">
	<desc>
			Created with Pixso.
	</desc>
	<defs/>
	<path id="Glad to offer you" d="M58.3 38.4L29.56 38.4L29.56 47.53L46.19 49.27L46.19 63.8Q44.31 65.23 41.57 65.95Q40.77 66.16 39.96 66.31Q37.99 66.68 35.95 66.68Q32.51 66.68 29.42 65.65Q28.74 65.42 28.09 65.15Q27.37 64.84 26.68 64.47Q23.86 62.95 21.64 60.34Q18.9 57.09 17.34 52.09Q15.81 47.1 15.81 40.14Q15.81 32.89 17.4 27.84Q19.01 22.77 21.91 19.55Q23.88 17.36 26.31 16Q27.49 15.34 28.78 14.87Q32.76 13.42 37.49 13.42Q42.78 13.42 46.19 14.04Q49.6 14.63 52.34 15.73L55.42 3.08Q52.44 1.98 47.45 0.99Q42.45 0 35.85 0Q33.84 0 31.84 0.19Q27.29 0.65 22.85 2.14Q21.26 2.68 19.74 3.39Q15.2 5.49 11.35 9.1Q6.25 13.88 3.11 21.53Q0 29.16 0 40.04Q0 50.51 2.63 58.11Q5.26 65.68 9.88 70.57Q12.2 73.03 14.96 74.84Q17.67 76.62 20.81 77.77Q27.15 80.08 34.53 80.08Q40.79 80.08 47.21 78.33Q53.65 76.56 58.3 72.72L58.3 38.4ZM428.11 23.55L420.51 23.55L420.51 35.66L428.11 35.66L428.11 78.55L442.4 78.55L442.4 35.66L454.51 35.66L454.51 23.55L442.4 23.55Q442.4 20.92 442.56 18.87Q442.72 16.83 443.34 15.46Q443.73 14.6 444.38 14.02Q444.76 13.69 445.22 13.45Q446.48 12.78 448.69 12.78Q450.75 12.78 452.69 13.05Q454.62 13.32 457.15 14.2L459.88 2.76Q454.06 0.67 445.28 0.67Q437.86 0.67 433.56 4.33Q433 4.8 432.49 5.34Q428.11 10.01 428.11 20.46L428.11 23.55ZM463.42 23.55L455.82 23.55L455.82 35.66L463.42 35.66L463.42 78.55L477.71 78.55L477.71 35.66L489.82 35.66L489.82 23.55L477.71 23.55Q477.71 20.92 477.87 18.87Q478.03 16.83 478.65 15.46Q479.04 14.6 479.69 14.02Q480.07 13.69 480.53 13.45Q481.79 12.78 484 12.78Q486.06 12.78 488 13.05Q489.93 13.32 492.46 14.2L495.19 2.76Q489.37 0.67 480.59 0.67Q473.17 0.67 468.87 4.33Q468.31 4.8 467.8 5.34Q463.42 10.01 463.42 20.46L463.42 23.55ZM84.79 65.68Q83.8 63.91 83.8 60.07L83.8 1.55L69.51 1.55L69.51 67.54Q69.51 74.25 72.81 77.18Q76.12 80.08 82.37 80.08Q86.18 80.08 89.78 79.21Q89.81 79.2 89.84 79.19Q93.49 78.33 95.24 77.45L93.71 66.22Q91.83 67 90.56 67.21Q89.3 67.43 87.99 67.43Q86.69 67.43 85.81 66.82Q85.2 66.4 84.79 65.68ZM202.82 68.42Q202.71 63.8 202.71 59.18L202.71 1.55L188.42 1.55L188.42 23.87Q186.22 23.01 184.02 22.63Q181.82 22.23 178.4 22.23Q169.04 22.23 163.1 26.74Q161.22 28.17 159.69 30.05Q153.32 37.83 153.32 51.93Q153.32 66.44 159.04 73.26Q160.74 75.28 162.84 76.7Q167.83 80.08 175.1 80.08Q180.71 80.08 184.82 77.71Q187.97 75.92 190 73.26Q190.63 72.43 191.16 71.51L191.62 71.51L193.58 78.65L203.81 78.65Q202.92 73.04 202.82 68.42ZM244.95 23.55L237.35 23.55L237.35 35.66L244.95 35.66L244.95 63.37Q244.95 72.29 248.53 76.18Q248.61 76.28 248.7 76.37Q252.28 80.08 259.7 80.08Q261.92 80.08 264.11 79.78Q265.93 79.54 267.73 79.08Q271.67 78.12 274.66 76.67L272.13 65.68Q270.14 66.57 268.53 67Q266.95 67.43 264.75 67.43Q262.76 67.43 261.56 66.45Q260.85 65.88 260.42 64.96Q259.27 62.49 259.27 56.77L259.27 35.66L272.67 35.66L272.67 23.55L259.27 23.55L259.27 9.13L244.95 13.21L244.95 23.55ZM285.1 29.56Q278.28 37.08 278.28 51.05Q278.28 57.55 279.87 62.94Q281.48 68.32 284.73 72.13Q285.49 73.02 286.34 73.81Q289.11 76.41 292.81 78.01Q297.64 80.08 304.25 80.08Q313.92 80.08 320.16 75.45Q321.87 74.18 323.32 72.56Q330.09 65.01 330.09 51.05Q330.09 44.55 328.5 39.18Q326.92 33.78 323.72 29.99Q322.93 29.05 322.03 28.21Q319.33 25.67 315.69 24.11Q310.86 22.02 304.25 22.02Q294.66 22.02 288.41 26.58Q286.62 27.89 285.1 29.56ZM372 29.56Q365.18 37.08 365.18 51.05Q365.18 57.55 366.77 62.94Q368.38 68.32 371.63 72.13Q372.39 73.02 373.24 73.81Q376.01 76.41 379.71 78.01Q384.54 80.08 391.15 80.08Q400.82 80.08 407.06 75.45Q408.77 74.18 410.22 72.56Q416.99 65.01 416.99 51.05Q416.99 44.55 415.4 39.18Q413.82 33.78 410.62 29.99Q409.83 29.05 408.93 28.21Q406.23 25.67 402.59 24.11Q397.76 22.02 391.15 22.02Q381.56 22.02 375.31 26.58Q373.52 27.89 372 29.56ZM530.68 78.28Q536.35 76.45 539.65 73.82L534.92 64.48Q533.04 65.9 529.47 67.27Q525.9 68.64 521.39 68.64Q514.14 68.64 510.89 65.12Q507.64 61.6 507.32 54.67L540.29 54.67Q540.86 51.83 541.13 49.19Q541.4 46.54 541.4 44.23Q541.4 37.83 539.52 33.56Q537.66 29.27 534.57 26.74Q533.72 26.04 532.79 25.45Q530.4 23.91 527.54 23.12Q526.74 22.89 525.92 22.72Q522.74 22.02 519.4 22.02Q508.9 22.02 502.33 27.1Q501.06 28.09 499.93 29.27Q493 36.52 493 51.05Q493 64.58 499.15 72.34Q500.03 73.44 501.04 74.38Q507.21 80.08 518.65 80.08Q525.01 80.08 530.68 78.28ZM671.75 29.56Q664.93 37.08 664.93 51.05Q664.93 57.55 666.52 62.94Q668.13 68.32 671.38 72.13Q672.14 73.02 672.99 73.81Q675.76 76.41 679.46 78.01Q684.29 80.08 690.9 80.08Q700.57 80.08 706.81 75.45Q708.52 74.18 709.97 72.56Q716.74 65.01 716.74 51.05Q716.74 44.55 715.15 39.18Q713.57 33.78 710.37 29.99Q709.58 29.05 708.68 28.21Q705.98 25.67 702.34 24.11Q697.51 22.02 690.9 22.02Q681.31 22.02 675.06 26.58Q673.27 27.89 671.75 29.56ZM575.74 35.77Q578.48 35.77 581.89 36.98L583.77 23.55Q580.11 22.34 577.27 22.34Q573.91 22.34 571.23 23.68Q570.48 24.06 569.78 24.54L569.77 24.54Q566.6 26.75 564.73 30.8L564.3 30.8L562.63 23.55L551.51 23.55L551.51 78.55L565.83 78.55L565.83 43.02Q566.3 41.31 567.26 39.94Q568.09 38.74 569.29 37.81Q569.66 37.51 570.06 37.26Q572.43 35.77 575.74 35.77ZM111.52 23.6Q105.48 24.76 101.07 26.74L104.48 37.4Q107.57 35.98 112.35 35.1Q117.13 34.21 121.43 34.21Q126.99 34.21 128.69 36.77Q128.74 36.85 128.78 36.92Q130.45 39.61 129.67 45.76Q122.42 45.43 116.54 46.27Q110.66 47.1 106.42 49.25Q102.3 51.31 100.05 54.63Q99.98 54.73 99.92 54.83Q97.66 58.3 97.66 63.37Q97.66 67 98.87 69.93Q99.63 71.76 100.79 73.29Q101.47 74.18 102.28 74.98Q102.51 75.2 102.74 75.41Q104.8 77.24 107.57 78.28Q110.66 79.43 114.5 79.43Q120.65 79.43 124.54 76.96Q128.46 74.47 130.67 71.05L131.2 71.05L133.54 78.65L145.19 78.65Q143.88 74.71 143.53 70.25Q143.21 65.79 143.26 61.06Q143.31 56.34 143.64 51.45Q143.99 46.54 143.99 41.7Q143.99 37.3 143.05 33.78Q142.27 30.86 140.58 28.62Q140.23 28.16 139.85 27.74Q137.59 25.19 133.73 23.82Q129.89 22.45 124.17 22.45Q117.59 22.45 111.52 23.6ZM637.77 63.02L635.79 54.46L625.66 23.55L608.5 23.55L631.49 78.55Q630.28 84.16 627.92 86.31Q625.76 88.27 623.47 88.44Q623.25 88.46 623.03 88.46Q622.87 88.46 622.7 88.45Q621.2 88.39 619.73 87.79L617.1 99.23Q620.51 101.11 626.23 101.11Q629.16 101.11 631.49 99.91Q632.2 99.55 632.86 99.06Q635.68 97.02 637.99 93.29Q640.3 89.56 642.21 84.43Q644.14 79.33 646.23 73.15L662.97 23.55L648.22 23.55L639.84 54.35L638.42 63.02L637.77 63.02ZM740.38 54.78L740.38 23.55L726.1 23.55L726.1 57.76Q726.1 64.26 727.25 68.56Q728.41 72.83 730.61 75.35Q731.4 76.26 732.34 76.99Q734 78.27 736.11 78.98Q739.42 80.08 743.58 80.08Q749.76 80.08 754.27 77.34Q757.99 75.08 760.36 71.83Q760.86 71.14 761.3 70.41L761.73 70.41L764.26 78.55L775.05 78.55Q774.17 75.03 773.71 70.68Q773.28 66.33 773.28 61.82L773.28 23.55L758.99 23.55L758.99 59.08Q758.15 61.34 756.72 63.15Q755.93 64.15 754.97 65.01Q754.25 65.66 753.42 66.14Q751.18 67.43 748.2 67.43Q744.59 67.43 742.81 65.62Q742.32 65.12 741.97 64.48Q740.38 61.49 740.38 54.78ZM511.88 35.75Q514.54 33.46 519.19 33.46Q522.76 33.46 524.92 35.2Q525.69 35.82 526.28 36.65Q528.53 39.82 528.1 45.76L507.64 45.76Q508.17 40.14 510.86 36.81Q511.33 36.23 511.88 35.75ZM293.67 57.76Q293.03 54.67 293.03 51.05Q293.03 42.02 295.98 38.08Q297.24 36.4 298.9 35.43Q301.19 34.1 304.25 34.1Q308.01 34.1 310.4 35.91Q311.86 37 312.82 38.77Q315.37 43.45 315.37 51.05Q315.37 59.86 312.6 63.94Q311.65 65.35 310.35 66.26Q307.92 67.99 304.25 67.99Q301.27 67.99 299.12 66.73Q298.56 66.4 298.06 66Q296.63 64.87 295.66 63.16Q294.34 60.85 293.67 57.76ZM380.57 57.76Q379.93 54.67 379.93 51.05Q379.93 42.02 382.88 38.08Q384.14 36.4 385.8 35.43Q388.09 34.1 391.15 34.1Q394.91 34.1 397.3 35.91Q398.76 37 399.72 38.77Q402.27 43.45 402.27 51.05Q402.27 59.86 399.5 63.94Q398.55 65.35 397.26 66.26Q394.82 67.99 391.15 67.99Q388.17 67.99 386.02 66.73Q385.46 66.4 384.96 66Q383.53 64.87 382.56 63.16Q381.24 60.85 380.57 57.76ZM680.32 57.76Q679.68 54.67 679.68 51.05Q679.68 42.02 682.63 38.08Q683.89 36.4 685.55 35.43Q687.84 34.1 690.9 34.1Q694.66 34.1 697.05 35.91Q698.51 37 699.47 38.77Q702.02 43.45 702.02 51.05Q702.02 59.86 699.25 63.94Q698.3 65.35 697.01 66.26Q694.57 67.99 690.9 67.99Q687.92 67.99 685.77 66.73Q685.21 66.4 684.71 66Q683.28 64.87 682.31 63.16Q680.99 60.85 680.32 57.76ZM185.01 65.95Q182.59 67.99 178.4 67.99Q175.25 67.99 173.09 66.52Q171.56 65.48 170.54 63.7Q168.07 59.4 168.07 52.36Q168.07 42.48 171.07 38.4Q171.95 37.22 173.07 36.39Q175.86 34.32 180.18 34.32Q183.13 34.32 184.98 34.93Q185.8 35.19 186.55 35.57Q187.54 36.06 188.42 36.76L188.42 60.07Q187.43 63.91 185.01 65.95ZM126.05 65.74Q123.52 67.64 119.23 67.64Q116.27 67.64 114.49 66.2Q114.34 66.08 114.2 65.95Q113.9 65.67 113.65 65.34Q112.4 63.74 112.4 61.17Q112.4 59.74 113.01 58.63Q113.33 58.04 113.83 57.55Q115.28 56.1 117.69 55.34Q120.11 54.57 123.23 54.35Q126.37 54.14 129.78 54.46L129.78 61.6Q128.57 63.8 126.05 65.74Z" fill="#F1F2F6" fill-opacity="1.000000" fill-rule="evenodd"/>
</svg>
