<svg width="402.482910" height="100.654297" viewBox="0 0 402.483 100.654" fill="none" xmlns="http://www.w3.org/2000/svg" xmlns:xlink="http://www.w3.org/1999/xlink">
	<desc>
			Created with Pixso.
	</desc>
	<defs/>
	<path id="Payment" d="M10.15 0.51Q4.61 0.99 -0.01 1.85L-0.01 78.09L15.06 78.09L15.06 51.58Q15.6 51.69 16.86 51.8Q18.15 51.91 19.46 51.96Q20.78 52.01 21.99 52.01L23.74 52.01Q29.41 52.01 34.72 50.61Q34.76 50.6 34.8 50.59Q39.27 49.4 42.91 46.97Q43.62 46.5 44.31 45.97Q45.16 45.32 45.95 44.59Q49.01 41.76 51.02 37.78Q53.57 32.76 53.57 25.51Q53.57 17.48 50.64 12.48Q48.31 8.48 44.9 5.89Q44.04 5.23 43.1 4.67Q43.06 4.64 43.02 4.62Q38.43 1.84 32.7 0.93Q26.93 0 21.21 0Q15.71 0 10.15 0.51ZM372.78 23.09L365.18 23.09L365.18 35.2L372.78 35.2L372.78 62.92Q372.78 71.83 376.35 75.73Q376.44 75.82 376.53 75.92Q380.11 79.62 387.52 79.62Q389.75 79.62 391.93 79.33Q393.75 79.08 395.55 78.63Q399.5 77.66 402.48 76.21L399.95 65.23Q397.97 66.11 396.36 66.54Q394.77 66.97 392.57 66.97Q390.58 66.97 389.38 66Q388.67 65.42 388.24 64.5Q387.09 62.03 387.09 56.31L387.09 35.2L400.49 35.2L400.49 23.09L387.09 23.09L387.09 8.67L372.78 12.75L372.78 23.09ZM18.23 13.13Q20.22 12.97 22.42 12.97Q25.29 12.97 28.03 13.53Q30.8 14.07 32.92 15.52Q33.53 15.92 34.08 16.41Q35.44 17.62 36.38 19.3Q37.73 21.67 37.73 25.29Q37.73 29.59 36.33 32.22Q35.26 34.27 33.62 35.64Q33.16 36.03 32.65 36.36Q30.34 37.83 27.41 38.4Q26.09 38.64 24.76 38.78Q23.17 38.94 21.56 38.94L20.16 38.94Q19.25 38.94 18.26 38.88Q17.26 38.83 16.38 38.72Q15.49 38.61 15.06 38.48L15.06 13.53Q16.27 13.29 18.23 13.13ZM197.78 48.17L197.78 78.09L212.06 78.09L212.06 42.02Q213.16 38.37 215.42 36.3Q215.69 36.06 215.97 35.84Q218.13 34.21 221.52 34.21Q224.99 34.21 226.66 35.94Q227.27 36.58 227.64 37.46Q229.01 40.68 229.01 47.18L229.01 78.09L243.3 78.09L243.3 45.09Q243.3 38.16 242.3 33.64Q241.34 29.13 239.29 26.45Q238.38 25.24 237.21 24.35Q235.79 23.27 234 22.66Q230.78 21.56 226.14 21.56Q220.55 21.56 216.57 24.08Q215.77 24.6 215.02 25.19Q212.11 27.49 210.08 30.91Q208.22 25.83 204.87 23.71Q201.51 21.56 196.22 21.56Q190.07 21.56 186.15 24.19Q182.25 26.82 179.73 30.34L179.3 30.34L177.63 23.09L166.52 23.09L166.52 78.09L180.83 78.09L180.83 41.46Q181.96 38.46 184.06 36.51Q184.2 36.38 184.35 36.25Q184.68 35.96 185.03 35.71Q187.19 34.21 190.39 34.21Q193.57 34.21 195.22 35.8Q195.91 36.46 196.33 37.4Q197.78 40.57 197.78 48.17ZM290.11 77.82Q295.78 76 299.08 73.36L294.35 64.02Q292.48 65.44 288.9 66.81Q285.33 68.18 280.82 68.18Q273.57 68.18 270.32 64.66Q267.07 61.14 266.75 54.22L299.73 54.22Q300.29 51.37 300.56 48.74Q300.83 46.08 300.83 43.77Q300.83 37.38 298.95 33.11Q297.09 28.81 294.01 26.29Q293.15 25.58 292.23 24.99Q289.84 23.46 286.97 22.66Q286.17 22.44 285.36 22.26Q282.17 21.56 278.83 21.56Q268.33 21.56 261.77 26.64Q260.49 27.63 259.36 28.81Q252.43 36.06 252.43 50.59Q252.43 64.13 258.58 71.89Q259.46 72.98 260.48 73.92Q266.65 79.62 278.08 79.62Q284.45 79.62 290.11 77.82ZM344.62 46.86L344.62 78.09L358.91 78.09L358.91 43.88Q358.91 37.51 357.81 33.16Q356.71 28.81 354.51 26.29Q353.53 25.16 352.35 24.31Q350.9 23.27 349.13 22.66Q345.94 21.56 341.86 21.56Q335.28 21.56 331.09 24.19Q326.9 26.82 324.37 30.34L323.94 30.34L322.28 23.09L310.95 23.09L310.95 78.09L325.26 78.09L325.26 42.45Q325.94 40.49 327.1 38.88Q328.03 37.62 329.26 36.57Q330.09 35.87 331.04 35.38Q333.28 34.21 336.14 34.21Q339.7 34.21 341.66 35.98Q342.25 36.51 342.69 37.19Q344.62 40.14 344.62 46.86ZM69.5 23.14Q63.46 24.3 59.05 26.29L62.46 36.95Q65.55 35.52 70.33 34.64Q75.11 33.75 79.41 33.75Q84.97 33.75 86.67 36.32Q86.72 36.39 86.77 36.46Q88.43 39.15 87.65 45.3Q80.4 44.98 74.52 45.81Q68.64 46.64 64.4 48.79Q60.28 50.85 58.03 54.18Q57.96 54.28 57.9 54.38Q55.64 57.84 55.64 62.92Q55.64 66.54 56.85 69.47Q57.61 71.3 58.77 72.83Q59.45 73.73 60.26 74.52Q60.49 74.74 60.73 74.95Q62.78 76.79 65.55 77.82Q68.64 78.98 72.48 78.98Q78.63 78.98 82.53 76.51Q86.45 74.01 88.65 70.6L89.19 70.6L91.52 78.2L103.18 78.2Q101.86 74.25 101.51 69.79Q101.19 65.33 101.24 60.61Q101.3 55.88 101.62 50.99Q101.97 46.08 101.97 41.25Q101.97 36.84 101.03 33.32Q100.25 30.4 98.56 28.16Q98.21 27.71 97.83 27.28Q95.58 24.73 91.71 23.36Q87.87 21.99 82.15 21.99Q75.57 21.99 69.5 23.14ZM135.96 62.57L133.97 54L123.85 23.09L106.69 23.09L129.67 78.09Q128.47 83.7 126.1 85.85Q123.95 87.81 121.66 87.98Q121.44 88 121.21 88Q121.05 88 120.88 87.99Q119.39 87.93 117.91 87.33L115.28 98.77Q118.69 100.65 124.41 100.65Q127.34 100.65 129.67 99.46Q130.38 99.09 131.04 98.61Q133.86 96.57 136.17 92.83Q138.48 89.1 140.39 83.97Q142.32 78.87 144.42 72.69L161.15 23.09L146.4 23.09L138.03 53.89L136.6 62.57L135.96 62.57ZM271.32 35.3Q273.98 33 278.62 33Q282.19 33 284.36 34.75Q285.12 35.36 285.71 36.2Q287.96 39.37 287.53 45.3L267.07 45.3Q267.61 39.69 270.29 36.36Q270.76 35.78 271.32 35.3ZM84.03 65.28Q81.5 67.19 77.21 67.19Q74.26 67.19 72.47 65.74Q72.33 65.62 72.19 65.5Q71.88 65.21 71.63 64.89Q70.39 63.28 70.39 60.72Q70.39 59.28 70.99 58.18Q71.31 57.59 71.81 57.09Q73.26 55.64 75.68 54.89Q78.09 54.11 81.21 53.89Q84.35 53.68 87.76 54L87.76 61.14Q86.55 63.35 84.03 65.28Z" fill="#F1F2F6" fill-opacity="1.000000" fill-rule="evenodd"/>
</svg>
