<svg width="80.000000" height="80.000000" viewBox="0 0 80 80" fill="none" xmlns="http://www.w3.org/2000/svg" xmlns:xlink="http://www.w3.org/1999/xlink">
	<desc>
			Created with Pixso.
	</desc>
	<defs>
		<clipPath id="clip5_4553">
			<rect id="thumb-up 1" rx="-0.500000" width="79.000000" height="79.000000" transform="translate(0.500000 0.500000)" fill="white" fill-opacity="0"/>
		</clipPath>
	</defs>
	<rect id="thumb-up 1" rx="-0.500000" width="79.000000" height="79.000000" transform="translate(0.500000 0.500000)" fill="#FFFFFF" fill-opacity="0"/>
	<g clip-path="url(#clip5_4553)">
		<path id="Vector" d="M28.27 24.79L44.24 6.16C45.66 4.5 48.04 4.02 50 5C51.91 5.95 52.83 8.17 52.15 10.2L46.66 26.66L62.01 26.66C62.41 26.66 62.81 26.7 63.2 26.77C66.82 27.43 69.22 30.9 68.57 34.52L64.32 57.85C63.75 61.02 60.99 63.33 57.76 63.33L33.33 63.33C29.65 63.33 26.66 60.34 26.66 56.66L26.66 29.13C26.66 27.54 27.23 26 28.27 24.79Z" stroke="#4798DE" stroke-opacity="1.000000" stroke-width="3.000000"/>
		<path id="Vector" d="M13.33 60L13.33 30" stroke="#4798DE" stroke-opacity="1.000000" stroke-width="3.000000" stroke-linecap="square"/>
	</g>
</svg>
