<svg width="80.000000" height="80.000000" viewBox="0 0 80 80" fill="none" xmlns="http://www.w3.org/2000/svg" xmlns:xlink="http://www.w3.org/1999/xlink">
	<desc>
			Created with Pixso.
	</desc>
	<defs>
		<clipPath id="clip5_4538">
			<rect id="transport 3" rx="-0.500000" width="79.000000" height="79.000000" transform="translate(0.500000 0.500000)" fill="white" fill-opacity="0"/>
		</clipPath>
	</defs>
	<rect id="transport 3" rx="-0.500000" width="79.000000" height="79.000000" transform="translate(0.500000 0.500000)" fill="#FFFFFF" fill-opacity="0"/>
	<g clip-path="url(#clip5_4538)">
		<path id="Vector" d="M13.33 56.66L6.66 56.66L6.66 23.33L50 23.33L50 56.66L26.66 56.66" stroke="#4798DE" stroke-opacity="1.000000" stroke-width="3.000000" stroke-linecap="square"/>
		<path id="Vector" d="M66.66 56.66L73.33 56.66L73.33 41.85L66.66 30L50 30L50 56.66L53.33 56.66" stroke="#4798DE" stroke-opacity="1.000000" stroke-width="3.000000" stroke-linecap="square"/>
		<path id="Vector" d="M20 63.33C16.31 63.33 13.33 60.34 13.33 56.66C13.33 52.98 16.31 50 20 50C23.68 50 26.66 52.98 26.66 56.66C26.66 60.34 23.68 63.33 20 63.33Z" stroke="#4798DE" stroke-opacity="1.000000" stroke-width="3.000000"/>
		<path id="Vector" d="M60 63.33C56.31 63.33 53.33 60.34 53.33 56.66C53.33 52.98 56.31 50 60 50C63.68 50 66.66 52.98 66.66 56.66C66.66 60.34 63.68 63.33 60 63.33Z" stroke="#4798DE" stroke-opacity="1.000000" stroke-width="3.000000"/>
	</g>
</svg>
