<svg width="50.000000" height="30.000000" viewBox="0 0 50 30" fill="none" xmlns="http://www.w3.org/2000/svg" xmlns:xlink="http://www.w3.org/1999/xlink">
	<desc>
			Created with Pixso.
	</desc>
	<defs>
		<clipPath id="clip5_4860">
			<rect id="mir-logo 1" rx="-0.500000" width="39.450001" height="10.450000" transform="translate(5.500000 9.500000)" fill="white" fill-opacity="0"/>
		</clipPath>
		<linearGradient x1="34.450188" y1="11.349999" x2="46.354218" y2="11.349999" id="paint_linear_5_4868_0" gradientUnits="userSpaceOnUse">
			<stop offset="0.300000" stop-color="#00B4E6"/>
			<stop offset="1.000000" stop-color="#088CCB"/>
		</linearGradient>
	</defs>
	<rect id="Rectangle 417" width="50.000000" height="30.000000" fill="#FFFFFF" fill-opacity="1.000000"/>
	<rect id="Rectangle 417" x="0.500000" y="0.500000" width="49.000000" height="29.000000" stroke="#F1F2F6" stroke-opacity="1.000000" stroke-width="1.000000"/>
	<rect id="mir-logo 1" rx="-0.500000" width="39.450001" height="10.450000" transform="translate(5.500000 9.500000)" fill="#FFFFFF" fill-opacity="0"/>
	<g clip-path="url(#clip5_4860)">
		<path id="path7" d="M15.45 9L15.45 9C15.44 9 13.87 9 13.45 10.5C13.06 11.88 11.98 15.69 11.95 15.8L11.65 15.8C11.65 15.8 10.54 11.9 10.15 10.5C9.73 8.99 8.15 9 8.15 9L4.55 9L4.55 20.45L8.15 20.45L8.15 13.65L8.3 13.65L8.45 13.65L10.55 20.45L13.05 20.45L15.15 13.65L15.45 13.65L15.45 20.45L19.05 20.45L19.05 9L15.45 9Z" fill="#4DB45E" fill-opacity="1.000000" fill-rule="evenodd"/>
		<path id="path11" d="M29.05 9C29.05 9 27.99 9.09 27.5 10.2L24.95 15.8L24.65 15.8L24.65 9L21.05 9L21.05 20.45L24.45 20.45C24.45 20.45 25.55 20.35 26.05 19.25L28.55 13.65L28.85 13.65L28.85 20.45L32.45 20.45L32.45 9L29.05 9Z" fill="#4DB45E" fill-opacity="1.000000" fill-rule="evenodd"/>
		<path id="path15" d="M34.95 13.7L34.95 19.95L38.55 19.95L38.55 16.3L42.45 16.3C44.15 16.3 45.59 15.21 46.13 13.7L34.95 13.7Z" fill="#4DB45E" fill-opacity="1.000000" fill-rule="evenodd"/>
		<path id="path24" d="M42.45 9L34.44 9C34.84 11.18 36.48 12.93 38.59 13.5C39.08 13.63 39.58 13.7 40.1 13.7L46.27 13.7C46.33 13.44 46.35 13.17 46.35 12.9C46.35 10.74 44.6 9 42.45 9Z" fill="url(#paint_linear_5_4868_0)" fill-opacity="1.000000" fill-rule="evenodd"/>
	</g>
</svg>

