<svg width="16.902344" height="16.860474" viewBox="0 0 16.9023 16.8605" fill="none" xmlns="http://www.w3.org/2000/svg" xmlns:xlink="http://www.w3.org/1999/xlink">
	<desc>
			Created with Pixso.
	</desc>
	<defs/>
	<path id="Vector 34" d="M8.64 3.5C11.17 4.22 12.29 5.14 13.39 8.26" stroke="#6CDB7E" stroke-opacity="1.000000" stroke-width="1.000000"/>
	<path id="Vector 35" d="M9.07 0.47C13.22 1.72 15.01 3.1 16.42 7.83" stroke="#6CDB7E" stroke-opacity="1.000000" stroke-width="1.000000"/>
	<path id="Vector 33" d="M0.79 3.13C0.56 3.36 0.45 3.69 0.51 4.01C1.9 11.4 4.72 14.12 12.4 16.32C12.75 16.42 13.12 16.32 13.37 16.06L14.41 15.02C14.81 14.63 14.81 14 14.41 13.6L12.37 11.56C11.98 11.17 11.34 11.17 10.96 11.56L10.47 12.04C10.15 12.36 9.66 12.43 9.28 12.19C7.28 10.96 6.23 9.82 4.81 8.03C4.52 7.66 4.53 7.13 4.83 6.77L5.85 5.54C6.2 5.13 6.15 4.51 5.75 4.15L3.29 1.97C2.89 1.61 2.29 1.63 1.91 2.01L0.79 3.13Z" stroke="#6CDB7E" stroke-opacity="1.000000" stroke-width="1.000000"/>
</svg>
